<svg width="1310" height="406" viewBox="0 0 1310 406" fill="none" xmlns="http://www.w3.org/2000/svg">
<mask id="path-1-outside-1_50_75" maskUnits="userSpaceOnUse" x="-0.00585938" y="-0.00390625" width="1311" height="406" fill="black">
<rect fill="white" x="-0.00585938" y="-0.00390625" width="1311" height="406"/>
<path d="M320.132 201.184C321.683 186.461 325.516 172.069 331.494 158.526C335.776 148.794 341.667 139.226 348.379 131.077C392.112 77.9841 487.808 76.9853 530.626 131.984C541.251 145.632 546.222 157.166 552.272 173.071C559.743 198.749 561.501 219.036 558.799 245.647C548.182 320.908 494.724 365.408 418.12 354.309C389.235 350.403 363.206 334.846 346.082 311.258C336.515 298.327 331.977 289.015 326.797 273.922C319.18 247.016 317.556 228.701 320.132 201.184ZM441.692 261.373C459.846 252.65 455.889 185.406 437.476 185.255C419.614 193.476 424.145 240.241 433.35 254.842C435.801 258.733 437.272 260.042 441.692 261.373Z"/>
<path d="M320.132 201.662C329.273 200.674 341.406 197.902 350.841 196.198C368.632 192.884 386.528 190.141 404.5 187.996C397.494 209.949 398.468 238.996 406.994 260.274C380.091 263.8 353.339 268.378 326.799 273.996C319.18 247.239 317.556 229.026 320.132 201.662Z"/>
<path d="M469.994 179.65C497.382 176.837 524.826 174.618 552.308 172.996C559.744 198.883 561.494 219.333 558.805 246.161C533.354 246.094 502.416 249.757 477.029 251.996C481.694 225.984 479.912 203.991 469.994 179.65Z"/>
<path d="M517.994 209.496C517.994 252.85 482.848 287.996 439.494 287.996C396.14 287.996 360.994 252.85 360.994 209.496C360.994 166.142 396.14 130.996 439.494 130.996C482.848 130.996 517.994 166.142 517.994 209.496Z"/>
<path d="M517.994 209.496C517.994 166.142 482.848 130.996 439.494 130.996C396.14 130.996 360.994 166.142 360.994 209.496C360.994 252.85 396.14 287.996 439.494 287.996C482.848 287.996 517.994 252.85 517.994 209.496ZM530.994 209.496C530.994 260.03 490.028 300.996 439.494 300.996C388.96 300.996 347.994 260.03 347.994 209.496C347.994 158.962 388.96 117.996 439.494 117.996C490.028 117.996 530.994 158.962 530.994 209.496Z"/>
<path d="M498.994 248.996C526.494 238.496 527.994 240.996 557.494 251.996C546.877 327.018 494.919 365.376 418.316 354.312C389.432 350.419 363.402 334.911 346.279 311.397C333.994 299.496 323.494 267.996 321.494 251.996C345.494 239.81 383.097 244.53 409.994 240.996C420.816 240.997 430.028 246.525 442.494 248.996C472.494 240.996 475.494 238.996 498.994 248.996Z"/>
<path d="M399.258 231.707C396.133 233.134 392.723 235.274 391.587 236.559C389.172 239.698 378.233 239.841 375.392 236.844C367.863 229.424 349.963 228.425 341.155 235.132C338.03 237.7 333.91 239.27 329.649 239.698C321.835 240.411 318.994 242.409 318.994 246.975C318.994 249.401 320.131 250.97 322.688 251.826C330.359 254.823 338.314 252.825 347.264 245.976C352.378 241.838 360.333 242.552 368.289 247.546C373.829 251.113 376.386 251.826 383.773 251.826C389.882 251.826 393.575 251.113 395.848 249.258C406.219 241.695 411.617 241.41 421.845 247.831C427.954 251.684 430.511 252.397 437.898 252.397C448.268 252.54 450.825 250.828 448.837 245.12C447.7 241.695 446.422 240.982 438.608 239.555C433.778 238.699 428.664 236.987 427.244 235.703C423.408 232.278 414.884 228.996 409.628 228.996C407.071 228.996 402.383 230.28 399.258 231.707Z"/>
<path d="M512.426 231.707C509.301 233.134 505.891 235.274 504.755 236.559C502.34 239.698 491.401 239.841 488.56 236.844C481.031 229.424 463.131 228.425 454.323 235.132C451.198 237.7 447.078 239.27 442.817 239.698C435.003 240.411 432.162 242.409 432.162 246.975C432.162 249.401 433.299 250.97 435.856 251.826C443.527 254.823 451.482 252.825 460.432 245.976C465.546 241.838 473.501 242.552 481.457 247.546C486.997 251.113 489.554 251.826 496.941 251.826C503.05 251.826 506.743 251.113 509.016 249.258C519.387 241.695 524.785 241.41 535.013 247.831C541.122 251.684 543.679 252.397 551.066 252.397C561.436 252.54 563.993 250.828 562.005 245.12C560.868 241.695 559.59 240.982 551.776 239.555C546.946 238.699 541.832 236.987 540.412 235.703C536.576 232.278 528.052 228.996 522.796 228.996C520.239 228.996 515.551 230.28 512.426 231.707Z"/>
<path d="M460.753 260.501C456.713 262.346 452.305 265.113 450.836 266.774C447.714 270.832 433.573 271.017 429.901 267.143C420.167 257.55 397.028 256.258 385.643 264.929C381.602 268.25 376.277 270.279 370.767 270.832C360.667 271.755 356.994 274.338 356.994 280.241C356.994 283.377 358.463 285.407 361.769 286.513C371.686 290.388 381.97 287.805 393.539 278.95C400.15 273.6 410.434 274.522 420.718 280.979C427.88 285.591 431.186 286.513 440.736 286.513C448.632 286.513 453.407 285.591 456.345 283.193C469.751 273.415 476.73 273.046 489.952 281.348C497.849 286.329 501.154 287.251 510.704 287.251C524.11 287.436 527.415 285.222 524.844 277.843C523.375 273.415 521.722 272.493 511.622 270.648C505.378 269.541 498.767 267.327 496.93 265.667C491.972 261.239 480.953 256.996 474.159 256.996C470.853 256.996 464.793 258.657 460.753 260.501Z"/>
<path d="M22.9566 250.635C10.3594 190.03 12.1659 125.15 51.0851 73.5085C96.5037 13.243 198.985 -4.01784 259.516 42.7293C275.211 55.2342 286.283 70.5282 288.652 90.809C291.686 115.283 274.191 135.564 249.469 136.717C204.345 138.821 216.713 91.7167 165.596 96.3897C150.139 97.6612 135.866 105.173 126.066 117.193C106.394 141.458 106.305 180.184 109.349 209.609C114.428 234.642 116.301 253.73 131.801 276.771C123.23 280.571 114.099 283.739 105.378 287.362C85.0213 295.814 67.2742 304.913 48.8178 316.996C36.7828 299.577 27.739 271.31 22.9566 250.635Z"/>
<path d="M109.51 209.996C114.596 234.939 116.472 253.957 131.994 276.916C123.411 280.702 114.266 283.858 105.534 287.469C85.1476 295.89 67.375 304.957 48.8923 316.996C36.84 299.64 27.7834 271.475 22.9941 250.874C42.6972 235.928 80.6837 217.246 105.715 211.138C107.472 210.714 107.173 211.497 109.51 209.996Z"/>
<path d="M109.51 209.996C114.596 234.939 116.472 253.957 131.994 276.916C123.411 280.702 114.266 283.858 105.534 287.469C85.1476 295.89 67.375 304.957 48.8923 316.996C36.84 299.64 27.7834 271.475 22.9941 250.874C42.6972 235.928 80.6837 217.246 105.715 211.138C107.472 210.714 107.173 211.497 109.51 209.996Z"/>
<path d="M816.178 183.757C826.182 147.588 841.217 118.152 875.316 99.0176C926.881 70.0784 1007.15 82.8862 1036.26 138.022C1047.3 158.904 1051.35 179.225 1050.97 202.399C1049.74 232.205 1037.75 245.942 1006.9 243.317C968.524 240.05 929.968 237.418 891.581 234.291C892.539 247.122 893.718 252.063 898.955 263.839C895.206 265.093 870.174 258.478 864.082 257.077C847.419 253.198 830.624 249.88 813.74 247.137C810.403 224.314 812.2 206.019 816.178 183.757Z"/>
<path d="M816.179 183.996C833.83 187.143 853.692 195.502 871.388 200.207C919.342 212.963 969.034 218.227 1018.27 210.199C1028.36 208.567 1041.03 205.111 1050.99 202.582C1049.76 232.299 1037.77 245.996 1006.92 243.379C968.54 240.122 929.98 237.497 891.589 234.38C892.547 247.172 893.726 252.098 898.964 263.839C895.214 265.089 870.18 258.495 864.088 257.098C847.423 253.23 830.626 249.922 813.74 247.187C810.403 224.432 812.2 206.192 816.179 183.996Z"/>
<path d="M932.748 144.246C933.994 144.145 935.239 144.073 936.484 144.031C966.211 142.94 974.26 167.937 974.994 191.996C963.462 191.178 951.937 190.228 940.427 189.16C925.359 187.849 910.114 187.09 894.994 185.86C899.952 165.29 910.032 147.965 932.748 144.246Z"/>
<path d="M1084.21 186.781C1083.91 179.865 1083.84 174.425 1084.53 167.552C1089.3 119.599 1129.08 91.6561 1175.6 91.0148C1213.3 90.4949 1246.99 100.795 1276.63 126.238C1302.22 148.198 1301.51 194.336 1261.09 197.458C1251.78 198.179 1240.24 193.253 1234.14 186.288C1230.05 181.708 1226.44 176.662 1222.62 171.376C1212.02 156.705 1184.3 149.617 1169.61 161.522C1162.7 167.125 1162.74 182.194 1169.91 187.856C1192.54 207.464 1221.84 217.441 1244.77 236.873C1273.97 258.432 1282.8 290.411 1274.49 324.996C1253.42 308.385 1234.98 297.148 1209.18 289.189C1201.42 286.788 1189.2 280.883 1181.33 280.942C1139.8 253.418 1093.94 242.322 1084.21 186.781Z"/>
<path d="M1083.99 186.996C1092.98 190.282 1117.58 194.135 1128.67 196.892C1160.25 204.905 1191.13 215.521 1220.97 228.636C1225.13 230.496 1239.46 237.451 1243.05 238.164C1243.44 237.841 1244.07 237.385 1244.34 237.01C1273.5 258.536 1282.32 290.465 1274.02 324.996C1252.98 308.411 1234.56 297.192 1208.8 289.244C1201.05 286.848 1188.85 280.952 1180.98 281.01C1139.51 253.53 1093.72 242.45 1083.99 186.996Z"/>
<path d="M131.972 276.481C143.384 291.69 156.742 302.131 174.684 304.393C205.909 308.349 227.403 294.825 244.046 269.486C249.743 260.813 268.339 255.763 279.297 257.256C289.731 258.595 299.158 264.185 305.367 272.732C313.338 283.579 315.197 301.495 310.302 313.991C289.136 367.99 225.109 388.922 172.003 388.996C124.165 389.062 81.4467 365.964 54.7831 326.258C52.8782 323.403 50.4904 320.032 48.9941 316.948C67.4494 304.793 85.1955 295.639 105.551 287.136C114.271 283.49 123.402 280.304 131.972 276.481Z"/>
<path d="M1273.99 325.145C1260.62 367.51 1227.16 389.564 1182.77 389.988C1143.87 390.354 1099.25 378.57 1070.4 351.718C1051.64 334.251 1042.09 305.037 1062.22 284.512C1069.32 277.19 1076.68 275.003 1086.71 274.996C1109.67 275.135 1116.98 293.78 1130.39 308.416C1143.18 322.387 1173.7 330.162 1189.03 316.47C1192.61 313.266 1194.56 305.447 1194.11 300.751C1193.3 292.339 1186.99 286.516 1180.9 281.382C1188.77 281.323 1200.98 287.189 1208.73 289.574C1234.51 297.481 1252.93 308.643 1273.99 325.145Z"/>
<path d="M813.994 246.996C830.791 249.742 847.5 253.064 864.078 256.946C870.138 258.349 895.041 264.97 898.771 263.715C914.894 288.377 941.797 292.067 967.938 281.519C976.835 277.932 983.819 272.669 993.435 270.787C1010.19 267.502 1025.34 278.22 1028.22 295.049C1035.15 330.156 994.204 345.753 967.337 349.886C916.228 357.747 860.069 344.357 831.546 297.618C821.601 281.313 817.006 265.804 813.994 246.996Z"/>
<path d="M581.926 165.286L569.757 134.93C563.996 120.394 559.705 108.308 566.391 92.5046C578.002 65.0612 623.989 62.1057 639.595 86.9899C646.777 98.4495 650.519 115.389 654.909 128.484C658.827 140.188 661.766 152.594 665.943 164.44L680.284 212.177C682.391 219.207 684.659 228.12 686.994 234.812C686.582 235.172 686.169 235.54 685.757 235.9C664.072 236.797 630.584 235.033 610.047 236.996C607.925 230.554 603.396 220.097 600.764 213.478C594.327 197.476 588.048 181.41 581.926 165.286Z"/>
<path d="M581.994 165.332C602.958 163.139 644.573 164.251 665.956 164.487L680.288 212.193C682.394 219.218 684.661 228.126 686.994 234.813C686.582 235.173 686.17 235.541 685.758 235.901C664.087 236.798 630.621 235.034 610.098 236.996C607.977 230.558 603.451 220.108 600.821 213.493C594.388 197.502 588.113 181.446 581.994 165.332Z"/>
<path d="M710.057 165.015C716.317 145.973 729.153 99.3514 738.66 85.6755C742.179 80.6207 746.653 76.7058 752.201 74.0015C761.899 69.2659 774.08 68.7422 784.249 72.3629C793.954 75.8173 802.322 82.6424 806.657 92.1358C812.652 105.27 809.692 118.15 804.666 130.871C798.906 145.436 792.69 159.829 786.996 174.419C778.003 196.221 769.15 218.079 760.444 239.996C747.506 236.297 704.415 237.473 689.206 235.525C688.802 235.135 688.398 234.737 687.994 234.348C695.635 212.291 703.004 187.396 710.057 165.015Z"/>
<path d="M687.994 234.346C695.635 212.284 703.004 187.383 710.057 164.996C714.781 166.428 731.892 167.321 737.755 167.967C754.264 169.784 770.61 171.303 786.994 174.402C778.001 196.21 769.148 218.074 760.442 239.996C747.504 236.296 704.415 237.473 689.206 235.523C688.802 235.133 688.398 234.736 687.994 234.346Z"/>
<path d="M686.812 235.003L687.481 234.996C687.886 235.384 688.29 235.779 688.695 236.167C703.917 238.106 747.045 236.935 759.994 240.615C751.302 261.247 743.544 282.246 734.617 302.871C728.639 316.684 720.624 327.959 705.961 333.643C693.452 338.494 674.686 338.041 662.421 332.546C654.347 328.888 647.427 323.115 642.397 315.843C636.363 307.18 631.298 291.267 627.245 280.797L609.994 237.176C630.496 235.223 663.928 236.979 685.577 236.086C685.989 235.728 686.4 235.362 686.812 235.003Z"/>
</mask>
<path d="M320.132 201.184C321.683 186.461 325.516 172.069 331.494 158.526C335.776 148.794 341.667 139.226 348.379 131.077C392.112 77.9841 487.808 76.9853 530.626 131.984C541.251 145.632 546.222 157.166 552.272 173.071C559.743 198.749 561.501 219.036 558.799 245.647C548.182 320.908 494.724 365.408 418.12 354.309C389.235 350.403 363.206 334.846 346.082 311.258C336.515 298.327 331.977 289.015 326.797 273.922C319.18 247.016 317.556 228.701 320.132 201.184ZM441.692 261.373C459.846 252.65 455.889 185.406 437.476 185.255C419.614 193.476 424.145 240.241 433.35 254.842C435.801 258.733 437.272 260.042 441.692 261.373Z" fill="#F28C5B"/>
<path d="M320.132 201.662C329.273 200.674 341.406 197.902 350.841 196.198C368.632 192.884 386.528 190.141 404.5 187.996C397.494 209.949 398.468 238.996 406.994 260.274C380.091 263.8 353.339 268.378 326.799 273.996C319.18 247.239 317.556 229.026 320.132 201.662Z" fill="#FFB36B"/>
<path d="M469.994 179.65C497.382 176.837 524.826 174.618 552.308 172.996C559.744 198.883 561.494 219.333 558.805 246.161C533.354 246.094 502.416 249.757 477.029 251.996C481.694 225.984 479.912 203.991 469.994 179.65Z" fill="#FFB36B"/>
<path d="M517.994 209.496C517.994 252.85 482.848 287.996 439.494 287.996C396.14 287.996 360.994 252.85 360.994 209.496C360.994 166.142 396.14 130.996 439.494 130.996C482.848 130.996 517.994 166.142 517.994 209.496Z" fill="#FA8E32"/>
<path d="M517.994 209.496C517.994 166.142 482.848 130.996 439.494 130.996C396.14 130.996 360.994 166.142 360.994 209.496C360.994 252.85 396.14 287.996 439.494 287.996C482.848 287.996 517.994 252.85 517.994 209.496ZM530.994 209.496C530.994 260.03 490.028 300.996 439.494 300.996C388.96 300.996 347.994 260.03 347.994 209.496C347.994 158.962 388.96 117.996 439.494 117.996C490.028 117.996 530.994 158.962 530.994 209.496Z" fill="#1B2A2E"/>
<path d="M498.994 248.996C526.494 238.496 527.994 240.996 557.494 251.996C546.877 327.018 494.919 365.376 418.316 354.312C389.432 350.419 363.402 334.911 346.279 311.397C333.994 299.496 323.494 267.996 321.494 251.996C345.494 239.81 383.097 244.53 409.994 240.996C420.816 240.997 430.028 246.525 442.494 248.996C472.494 240.996 475.494 238.996 498.994 248.996Z" fill="#5FB6B3"/>
<path d="M399.258 231.707C396.133 233.134 392.723 235.274 391.587 236.559C389.172 239.698 378.233 239.841 375.392 236.844C367.863 229.424 349.963 228.425 341.155 235.132C338.03 237.7 333.91 239.27 329.649 239.698C321.835 240.411 318.994 242.409 318.994 246.975C318.994 249.401 320.131 250.97 322.688 251.826C330.359 254.823 338.314 252.825 347.264 245.976C352.378 241.838 360.333 242.552 368.289 247.546C373.829 251.113 376.386 251.826 383.773 251.826C389.882 251.826 393.575 251.113 395.848 249.258C406.219 241.695 411.617 241.41 421.845 247.831C427.954 251.684 430.511 252.397 437.898 252.397C448.268 252.54 450.825 250.828 448.837 245.12C447.7 241.695 446.422 240.982 438.608 239.555C433.778 238.699 428.664 236.987 427.244 235.703C423.408 232.278 414.884 228.996 409.628 228.996C407.071 228.996 402.383 230.28 399.258 231.707Z" fill="#1B2A2E"/>
<path d="M512.426 231.707C509.301 233.134 505.891 235.274 504.755 236.559C502.34 239.698 491.401 239.841 488.56 236.844C481.031 229.424 463.131 228.425 454.323 235.132C451.198 237.7 447.078 239.27 442.817 239.698C435.003 240.411 432.162 242.409 432.162 246.975C432.162 249.401 433.299 250.97 435.856 251.826C443.527 254.823 451.482 252.825 460.432 245.976C465.546 241.838 473.501 242.552 481.457 247.546C486.997 251.113 489.554 251.826 496.941 251.826C503.05 251.826 506.743 251.113 509.016 249.258C519.387 241.695 524.785 241.41 535.013 247.831C541.122 251.684 543.679 252.397 551.066 252.397C561.436 252.54 563.993 250.828 562.005 245.12C560.868 241.695 559.59 240.982 551.776 239.555C546.946 238.699 541.832 236.987 540.412 235.703C536.576 232.278 528.052 228.996 522.796 228.996C520.239 228.996 515.551 230.28 512.426 231.707Z" fill="#1B2A2E"/>
<path d="M460.753 260.501C456.713 262.346 452.305 265.113 450.836 266.774C447.714 270.832 433.573 271.017 429.901 267.143C420.167 257.55 397.028 256.258 385.643 264.929C381.602 268.25 376.277 270.279 370.767 270.832C360.667 271.755 356.994 274.338 356.994 280.241C356.994 283.377 358.463 285.407 361.769 286.513C371.686 290.388 381.97 287.805 393.539 278.95C400.15 273.6 410.434 274.522 420.718 280.979C427.88 285.591 431.186 286.513 440.736 286.513C448.632 286.513 453.407 285.591 456.345 283.193C469.751 273.415 476.73 273.046 489.952 281.348C497.849 286.329 501.154 287.251 510.704 287.251C524.11 287.436 527.415 285.222 524.844 277.843C523.375 273.415 521.722 272.493 511.622 270.648C505.378 269.541 498.767 267.327 496.93 265.667C491.972 261.239 480.953 256.996 474.159 256.996C470.853 256.996 464.793 258.657 460.753 260.501Z" fill="#1B2A2E"/>
<path d="M22.9566 250.635C10.3594 190.03 12.1659 125.15 51.0851 73.5085C96.5037 13.243 198.985 -4.01784 259.516 42.7293C275.211 55.2342 286.283 70.5282 288.652 90.809C291.686 115.283 274.191 135.564 249.469 136.717C204.345 138.821 216.713 91.7167 165.596 96.3897C150.139 97.6612 135.866 105.173 126.066 117.193C106.394 141.458 106.305 180.184 109.349 209.609C114.428 234.642 116.301 253.73 131.801 276.771C123.23 280.571 114.099 283.739 105.378 287.362C85.0213 295.814 67.2742 304.913 48.8178 316.996C36.7828 299.577 27.739 271.31 22.9566 250.635Z" fill="#F08C59"/>
<path d="M109.51 209.996C114.596 234.939 116.472 253.957 131.994 276.916C123.411 280.702 114.266 283.858 105.534 287.469C85.1476 295.89 67.375 304.957 48.8923 316.996C36.84 299.64 27.7834 271.475 22.9941 250.874C42.6972 235.928 80.6837 217.246 105.715 211.138C107.472 210.714 107.173 211.497 109.51 209.996Z" fill="#FFB468"/>
<path d="M109.51 209.996C114.596 234.939 116.472 253.957 131.994 276.916C123.411 280.702 114.266 283.858 105.534 287.469C85.1476 295.89 67.375 304.957 48.8923 316.996C36.84 299.64 27.7834 271.475 22.9941 250.874C42.6972 235.928 80.6837 217.246 105.715 211.138C107.472 210.714 107.173 211.497 109.51 209.996Z" fill="#FFB468"/>
<path d="M816.178 183.757C826.182 147.588 841.217 118.152 875.316 99.0176C926.881 70.0784 1007.15 82.8862 1036.26 138.022C1047.3 158.904 1051.35 179.225 1050.97 202.399C1049.74 232.205 1037.75 245.942 1006.9 243.317C968.524 240.05 929.968 237.418 891.581 234.291C892.539 247.122 893.718 252.063 898.955 263.839C895.206 265.093 870.174 258.478 864.082 257.077C847.419 253.198 830.624 249.88 813.74 247.137C810.403 224.314 812.2 206.019 816.178 183.757Z" fill="#F08C59"/>
<path d="M816.179 183.996C833.83 187.143 853.692 195.502 871.388 200.207C919.342 212.963 969.034 218.227 1018.27 210.199C1028.36 208.567 1041.03 205.111 1050.99 202.582C1049.76 232.299 1037.77 245.996 1006.92 243.379C968.54 240.122 929.98 237.497 891.589 234.38C892.547 247.172 893.726 252.098 898.964 263.839C895.214 265.089 870.18 258.495 864.088 257.098C847.423 253.23 830.626 249.922 813.74 247.187C810.403 224.432 812.2 206.192 816.179 183.996Z" fill="#FFB468"/>
<path d="M932.748 144.246C933.994 144.145 935.239 144.073 936.484 144.031C966.211 142.94 974.26 167.937 974.994 191.996C963.462 191.178 951.937 190.228 940.427 189.16C925.359 187.849 910.114 187.09 894.994 185.86C899.952 165.29 910.032 147.965 932.748 144.246Z" fill="#1B2A2E"/>
<path d="M1084.21 186.781C1083.91 179.865 1083.84 174.425 1084.53 167.552C1089.3 119.599 1129.08 91.6561 1175.6 91.0148C1213.3 90.4949 1246.99 100.795 1276.63 126.238C1302.22 148.198 1301.51 194.336 1261.09 197.458C1251.78 198.179 1240.24 193.253 1234.14 186.288C1230.05 181.708 1226.44 176.662 1222.62 171.376C1212.02 156.705 1184.3 149.617 1169.61 161.522C1162.7 167.125 1162.74 182.194 1169.91 187.856C1192.54 207.464 1221.84 217.441 1244.77 236.873C1273.97 258.432 1282.8 290.411 1274.49 324.996C1253.42 308.385 1234.98 297.148 1209.18 289.189C1201.42 286.788 1189.2 280.883 1181.33 280.942C1139.8 253.418 1093.94 242.322 1084.21 186.781Z" fill="#F08C59"/>
<path d="M1083.99 186.996C1092.98 190.282 1117.58 194.135 1128.67 196.892C1160.25 204.905 1191.13 215.521 1220.97 228.636C1225.13 230.496 1239.46 237.451 1243.05 238.164C1243.44 237.841 1244.07 237.385 1244.34 237.01C1273.5 258.536 1282.32 290.465 1274.02 324.996C1252.98 308.411 1234.56 297.192 1208.8 289.244C1201.05 286.848 1188.85 280.952 1180.98 281.01C1139.51 253.53 1093.72 242.45 1083.99 186.996Z" fill="#FFB468"/>
<path d="M131.972 276.481C143.384 291.69 156.742 302.131 174.684 304.393C205.909 308.349 227.403 294.825 244.046 269.486C249.743 260.813 268.339 255.763 279.297 257.256C289.731 258.595 299.158 264.185 305.367 272.732C313.338 283.579 315.197 301.495 310.302 313.991C289.136 367.99 225.109 388.922 172.003 388.996C124.165 389.062 81.4467 365.964 54.7831 326.258C52.8782 323.403 50.4904 320.032 48.9941 316.948C67.4494 304.793 85.1955 295.639 105.551 287.136C114.271 283.49 123.402 280.304 131.972 276.481Z" fill="#63B5B1"/>
<path d="M1273.99 325.145C1260.62 367.51 1227.16 389.564 1182.77 389.988C1143.87 390.354 1099.25 378.57 1070.4 351.718C1051.64 334.251 1042.09 305.037 1062.22 284.512C1069.32 277.19 1076.68 275.003 1086.71 274.996C1109.67 275.135 1116.98 293.78 1130.39 308.416C1143.18 322.387 1173.7 330.162 1189.03 316.47C1192.61 313.266 1194.56 305.447 1194.11 300.751C1193.3 292.339 1186.99 286.516 1180.9 281.382C1188.77 281.323 1200.98 287.189 1208.73 289.574C1234.51 297.481 1252.93 308.643 1273.99 325.145Z" fill="#63B5B1"/>
<path d="M813.994 246.996C830.791 249.742 847.5 253.064 864.078 256.946C870.138 258.349 895.041 264.97 898.771 263.715C914.894 288.377 941.797 292.067 967.938 281.519C976.835 277.932 983.819 272.669 993.435 270.787C1010.19 267.502 1025.34 278.22 1028.22 295.049C1035.15 330.156 994.204 345.753 967.337 349.886C916.228 357.747 860.069 344.357 831.546 297.618C821.601 281.313 817.006 265.804 813.994 246.996Z" fill="#63B5B1"/>
<path d="M581.926 165.286L569.757 134.93C563.996 120.394 559.705 108.308 566.391 92.5046C578.002 65.0612 623.989 62.1057 639.595 86.9899C646.777 98.4495 650.519 115.389 654.909 128.484C658.827 140.188 661.766 152.594 665.943 164.44L680.284 212.177C682.391 219.207 684.659 228.12 686.994 234.812C686.582 235.172 686.169 235.54 685.757 235.9C664.072 236.797 630.584 235.033 610.047 236.996C607.925 230.554 603.396 220.097 600.764 213.478C594.327 197.476 588.048 181.41 581.926 165.286Z" fill="#F08C59"/>
<path d="M581.994 165.332C602.958 163.139 644.573 164.251 665.956 164.487L680.288 212.193C682.394 219.218 684.661 228.126 686.994 234.813C686.582 235.173 686.17 235.541 685.758 235.901C664.087 236.798 630.621 235.034 610.098 236.996C607.977 230.558 603.451 220.108 600.821 213.493C594.388 197.502 588.113 181.446 581.994 165.332Z" fill="#FFB468"/>
<path d="M710.057 165.015C716.317 145.973 729.153 99.3514 738.66 85.6755C742.179 80.6207 746.653 76.7058 752.201 74.0015C761.899 69.2659 774.08 68.7422 784.249 72.3629C793.954 75.8173 802.322 82.6424 806.657 92.1358C812.652 105.27 809.692 118.15 804.666 130.871C798.906 145.436 792.69 159.829 786.996 174.419C778.003 196.221 769.15 218.079 760.444 239.996C747.506 236.297 704.415 237.473 689.206 235.525C688.802 235.135 688.398 234.737 687.994 234.348C695.635 212.291 703.004 187.396 710.057 165.015Z" fill="#F08C59"/>
<path d="M687.994 234.346C695.635 212.284 703.004 187.383 710.057 164.996C714.781 166.428 731.892 167.321 737.755 167.967C754.264 169.784 770.61 171.303 786.994 174.402C778.001 196.21 769.148 218.074 760.442 239.996C747.504 236.296 704.415 237.473 689.206 235.523C688.802 235.133 688.398 234.736 687.994 234.346Z" fill="#FFB468"/>
<path d="M686.812 235.003L687.481 234.996C687.886 235.384 688.29 235.779 688.695 236.167C703.917 238.106 747.045 236.935 759.994 240.615C751.302 261.247 743.544 282.246 734.617 302.871C728.639 316.684 720.624 327.959 705.961 333.643C693.452 338.494 674.686 338.041 662.421 332.546C654.347 328.888 647.427 323.115 642.397 315.843C636.363 307.18 631.298 291.267 627.245 280.797L609.994 237.176C630.496 235.223 663.928 236.979 685.577 236.086C685.989 235.728 686.4 235.362 686.812 235.003Z" fill="#63B5B1"/>
<path d="M320.132 201.184C321.683 186.461 325.516 172.069 331.494 158.526C335.776 148.794 341.667 139.226 348.379 131.077C392.112 77.9841 487.808 76.9853 530.626 131.984C541.251 145.632 546.222 157.166 552.272 173.071C559.743 198.749 561.501 219.036 558.799 245.647C548.182 320.908 494.724 365.408 418.12 354.309C389.235 350.403 363.206 334.846 346.082 311.258C336.515 298.327 331.977 289.015 326.797 273.922C319.18 247.016 317.556 228.701 320.132 201.184ZM441.692 261.373C459.846 252.65 455.889 185.406 437.476 185.255C419.614 193.476 424.145 240.241 433.35 254.842C435.801 258.733 437.272 260.042 441.692 261.373Z" stroke="#1B2A2E" stroke-width="32" mask="url(#path-1-outside-1_50_75)"/>
<path d="M320.132 201.662C329.273 200.674 341.406 197.902 350.841 196.198C368.632 192.884 386.528 190.141 404.5 187.996C397.494 209.949 398.468 238.996 406.994 260.274C380.091 263.8 353.339 268.378 326.799 273.996C319.18 247.239 317.556 229.026 320.132 201.662Z" stroke="#1B2A2E" stroke-width="32" mask="url(#path-1-outside-1_50_75)"/>
<path d="M469.994 179.65C497.382 176.837 524.826 174.618 552.308 172.996C559.744 198.883 561.494 219.333 558.805 246.161C533.354 246.094 502.416 249.757 477.029 251.996C481.694 225.984 479.912 203.991 469.994 179.65Z" stroke="#1B2A2E" stroke-width="32" mask="url(#path-1-outside-1_50_75)"/>
<path d="M517.994 209.496C517.994 252.85 482.848 287.996 439.494 287.996C396.14 287.996 360.994 252.85 360.994 209.496C360.994 166.142 396.14 130.996 439.494 130.996C482.848 130.996 517.994 166.142 517.994 209.496Z" stroke="#1B2A2E" stroke-width="32" mask="url(#path-1-outside-1_50_75)"/>
<path d="M517.994 209.496C517.994 166.142 482.848 130.996 439.494 130.996C396.14 130.996 360.994 166.142 360.994 209.496C360.994 252.85 396.14 287.996 439.494 287.996C482.848 287.996 517.994 252.85 517.994 209.496ZM530.994 209.496C530.994 260.03 490.028 300.996 439.494 300.996C388.96 300.996 347.994 260.03 347.994 209.496C347.994 158.962 388.96 117.996 439.494 117.996C490.028 117.996 530.994 158.962 530.994 209.496Z" stroke="#1B2A2E" stroke-width="32" mask="url(#path-1-outside-1_50_75)"/>
<path d="M498.994 248.996C526.494 238.496 527.994 240.996 557.494 251.996C546.877 327.018 494.919 365.376 418.316 354.312C389.432 350.419 363.402 334.911 346.279 311.397C333.994 299.496 323.494 267.996 321.494 251.996C345.494 239.81 383.097 244.53 409.994 240.996C420.816 240.997 430.028 246.525 442.494 248.996C472.494 240.996 475.494 238.996 498.994 248.996Z" stroke="#1B2A2E" stroke-width="32" mask="url(#path-1-outside-1_50_75)"/>
<path d="M399.258 231.707C396.133 233.134 392.723 235.274 391.587 236.559C389.172 239.698 378.233 239.841 375.392 236.844C367.863 229.424 349.963 228.425 341.155 235.132C338.03 237.7 333.91 239.27 329.649 239.698C321.835 240.411 318.994 242.409 318.994 246.975C318.994 249.401 320.131 250.97 322.688 251.826C330.359 254.823 338.314 252.825 347.264 245.976C352.378 241.838 360.333 242.552 368.289 247.546C373.829 251.113 376.386 251.826 383.773 251.826C389.882 251.826 393.575 251.113 395.848 249.258C406.219 241.695 411.617 241.41 421.845 247.831C427.954 251.684 430.511 252.397 437.898 252.397C448.268 252.54 450.825 250.828 448.837 245.12C447.7 241.695 446.422 240.982 438.608 239.555C433.778 238.699 428.664 236.987 427.244 235.703C423.408 232.278 414.884 228.996 409.628 228.996C407.071 228.996 402.383 230.28 399.258 231.707Z" stroke="#1B2A2E" stroke-width="32" mask="url(#path-1-outside-1_50_75)"/>
<path d="M512.426 231.707C509.301 233.134 505.891 235.274 504.755 236.559C502.34 239.698 491.401 239.841 488.56 236.844C481.031 229.424 463.131 228.425 454.323 235.132C451.198 237.7 447.078 239.27 442.817 239.698C435.003 240.411 432.162 242.409 432.162 246.975C432.162 249.401 433.299 250.97 435.856 251.826C443.527 254.823 451.482 252.825 460.432 245.976C465.546 241.838 473.501 242.552 481.457 247.546C486.997 251.113 489.554 251.826 496.941 251.826C503.05 251.826 506.743 251.113 509.016 249.258C519.387 241.695 524.785 241.41 535.013 247.831C541.122 251.684 543.679 252.397 551.066 252.397C561.436 252.54 563.993 250.828 562.005 245.12C560.868 241.695 559.59 240.982 551.776 239.555C546.946 238.699 541.832 236.987 540.412 235.703C536.576 232.278 528.052 228.996 522.796 228.996C520.239 228.996 515.551 230.28 512.426 231.707Z" stroke="#1B2A2E" stroke-width="32" mask="url(#path-1-outside-1_50_75)"/>
<path d="M460.753 260.501C456.713 262.346 452.305 265.113 450.836 266.774C447.714 270.832 433.573 271.017 429.901 267.143C420.167 257.55 397.028 256.258 385.643 264.929C381.602 268.25 376.277 270.279 370.767 270.832C360.667 271.755 356.994 274.338 356.994 280.241C356.994 283.377 358.463 285.407 361.769 286.513C371.686 290.388 381.97 287.805 393.539 278.95C400.15 273.6 410.434 274.522 420.718 280.979C427.88 285.591 431.186 286.513 440.736 286.513C448.632 286.513 453.407 285.591 456.345 283.193C469.751 273.415 476.73 273.046 489.952 281.348C497.849 286.329 501.154 287.251 510.704 287.251C524.11 287.436 527.415 285.222 524.844 277.843C523.375 273.415 521.722 272.493 511.622 270.648C505.378 269.541 498.767 267.327 496.93 265.667C491.972 261.239 480.953 256.996 474.159 256.996C470.853 256.996 464.793 258.657 460.753 260.501Z" stroke="#1B2A2E" stroke-width="32" mask="url(#path-1-outside-1_50_75)"/>
<path d="M22.9566 250.635C10.3594 190.03 12.1659 125.15 51.0851 73.5085C96.5037 13.243 198.985 -4.01784 259.516 42.7293C275.211 55.2342 286.283 70.5282 288.652 90.809C291.686 115.283 274.191 135.564 249.469 136.717C204.345 138.821 216.713 91.7167 165.596 96.3897C150.139 97.6612 135.866 105.173 126.066 117.193C106.394 141.458 106.305 180.184 109.349 209.609C114.428 234.642 116.301 253.73 131.801 276.771C123.23 280.571 114.099 283.739 105.378 287.362C85.0213 295.814 67.2742 304.913 48.8178 316.996C36.7828 299.577 27.739 271.31 22.9566 250.635Z" stroke="#1B2A2E" stroke-width="32" mask="url(#path-1-outside-1_50_75)"/>
<path d="M109.51 209.996C114.596 234.939 116.472 253.957 131.994 276.916C123.411 280.702 114.266 283.858 105.534 287.469C85.1476 295.89 67.375 304.957 48.8923 316.996C36.84 299.64 27.7834 271.475 22.9941 250.874C42.6972 235.928 80.6837 217.246 105.715 211.138C107.472 210.714 107.173 211.497 109.51 209.996Z" stroke="#1B2A2E" stroke-width="32" mask="url(#path-1-outside-1_50_75)"/>
<path d="M109.51 209.996C114.596 234.939 116.472 253.957 131.994 276.916C123.411 280.702 114.266 283.858 105.534 287.469C85.1476 295.89 67.375 304.957 48.8923 316.996C36.84 299.64 27.7834 271.475 22.9941 250.874C42.6972 235.928 80.6837 217.246 105.715 211.138C107.472 210.714 107.173 211.497 109.51 209.996Z" stroke="#1B2A2E" stroke-width="32" mask="url(#path-1-outside-1_50_75)"/>
<path d="M816.178 183.757C826.182 147.588 841.217 118.152 875.316 99.0176C926.881 70.0784 1007.15 82.8862 1036.26 138.022C1047.3 158.904 1051.35 179.225 1050.97 202.399C1049.74 232.205 1037.75 245.942 1006.9 243.317C968.524 240.05 929.968 237.418 891.581 234.291C892.539 247.122 893.718 252.063 898.955 263.839C895.206 265.093 870.174 258.478 864.082 257.077C847.419 253.198 830.624 249.88 813.74 247.137C810.403 224.314 812.2 206.019 816.178 183.757Z" stroke="#1B2A2E" stroke-width="32" mask="url(#path-1-outside-1_50_75)"/>
<path d="M816.179 183.996C833.83 187.143 853.692 195.502 871.388 200.207C919.342 212.963 969.034 218.227 1018.27 210.199C1028.36 208.567 1041.03 205.111 1050.99 202.582C1049.76 232.299 1037.77 245.996 1006.92 243.379C968.54 240.122 929.98 237.497 891.589 234.38C892.547 247.172 893.726 252.098 898.964 263.839C895.214 265.089 870.18 258.495 864.088 257.098C847.423 253.23 830.626 249.922 813.74 247.187C810.403 224.432 812.2 206.192 816.179 183.996Z" stroke="#1B2A2E" stroke-width="32" mask="url(#path-1-outside-1_50_75)"/>
<path d="M932.748 144.246C933.994 144.145 935.239 144.073 936.484 144.031C966.211 142.94 974.26 167.937 974.994 191.996C963.462 191.178 951.937 190.228 940.427 189.16C925.359 187.849 910.114 187.09 894.994 185.86C899.952 165.29 910.032 147.965 932.748 144.246Z" stroke="#1B2A2E" stroke-width="32" mask="url(#path-1-outside-1_50_75)"/>
<path d="M1084.21 186.781C1083.91 179.865 1083.84 174.425 1084.53 167.552C1089.3 119.599 1129.08 91.6561 1175.6 91.0148C1213.3 90.4949 1246.99 100.795 1276.63 126.238C1302.22 148.198 1301.51 194.336 1261.09 197.458C1251.78 198.179 1240.24 193.253 1234.14 186.288C1230.05 181.708 1226.44 176.662 1222.62 171.376C1212.02 156.705 1184.3 149.617 1169.61 161.522C1162.7 167.125 1162.74 182.194 1169.91 187.856C1192.54 207.464 1221.84 217.441 1244.77 236.873C1273.97 258.432 1282.8 290.411 1274.49 324.996C1253.42 308.385 1234.98 297.148 1209.18 289.189C1201.42 286.788 1189.2 280.883 1181.33 280.942C1139.8 253.418 1093.94 242.322 1084.21 186.781Z" stroke="#1B2A2E" stroke-width="32" mask="url(#path-1-outside-1_50_75)"/>
<path d="M1083.99 186.996C1092.98 190.282 1117.58 194.135 1128.67 196.892C1160.25 204.905 1191.13 215.521 1220.97 228.636C1225.13 230.496 1239.46 237.451 1243.05 238.164C1243.44 237.841 1244.07 237.385 1244.34 237.01C1273.5 258.536 1282.32 290.465 1274.02 324.996C1252.98 308.411 1234.56 297.192 1208.8 289.244C1201.05 286.848 1188.85 280.952 1180.98 281.01C1139.51 253.53 1093.72 242.45 1083.99 186.996Z" stroke="#1B2A2E" stroke-width="32" mask="url(#path-1-outside-1_50_75)"/>
<path d="M131.972 276.481C143.384 291.69 156.742 302.131 174.684 304.393C205.909 308.349 227.403 294.825 244.046 269.486C249.743 260.813 268.339 255.763 279.297 257.256C289.731 258.595 299.158 264.185 305.367 272.732C313.338 283.579 315.197 301.495 310.302 313.991C289.136 367.99 225.109 388.922 172.003 388.996C124.165 389.062 81.4467 365.964 54.7831 326.258C52.8782 323.403 50.4904 320.032 48.9941 316.948C67.4494 304.793 85.1955 295.639 105.551 287.136C114.271 283.49 123.402 280.304 131.972 276.481Z" stroke="#1B2A2E" stroke-width="32" mask="url(#path-1-outside-1_50_75)"/>
<path d="M1273.99 325.145C1260.62 367.51 1227.16 389.564 1182.77 389.988C1143.87 390.354 1099.25 378.57 1070.4 351.718C1051.64 334.251 1042.09 305.037 1062.22 284.512C1069.32 277.19 1076.68 275.003 1086.71 274.996C1109.67 275.135 1116.98 293.78 1130.39 308.416C1143.18 322.387 1173.7 330.162 1189.03 316.47C1192.61 313.266 1194.56 305.447 1194.11 300.751C1193.3 292.339 1186.99 286.516 1180.9 281.382C1188.77 281.323 1200.98 287.189 1208.73 289.574C1234.51 297.481 1252.93 308.643 1273.99 325.145Z" stroke="#1B2A2E" stroke-width="32" mask="url(#path-1-outside-1_50_75)"/>
<path d="M813.994 246.996C830.791 249.742 847.5 253.064 864.078 256.946C870.138 258.349 895.041 264.97 898.771 263.715C914.894 288.377 941.797 292.067 967.938 281.519C976.835 277.932 983.819 272.669 993.435 270.787C1010.19 267.502 1025.34 278.22 1028.22 295.049C1035.15 330.156 994.204 345.753 967.337 349.886C916.228 357.747 860.069 344.357 831.546 297.618C821.601 281.313 817.006 265.804 813.994 246.996Z" stroke="#1B2A2E" stroke-width="32" mask="url(#path-1-outside-1_50_75)"/>
<path d="M581.926 165.286L569.757 134.93C563.996 120.394 559.705 108.308 566.391 92.5046C578.002 65.0612 623.989 62.1057 639.595 86.9899C646.777 98.4495 650.519 115.389 654.909 128.484C658.827 140.188 661.766 152.594 665.943 164.44L680.284 212.177C682.391 219.207 684.659 228.12 686.994 234.812C686.582 235.172 686.169 235.54 685.757 235.9C664.072 236.797 630.584 235.033 610.047 236.996C607.925 230.554 603.396 220.097 600.764 213.478C594.327 197.476 588.048 181.41 581.926 165.286Z" stroke="#1B2A2E" stroke-width="32" mask="url(#path-1-outside-1_50_75)"/>
<path d="M581.994 165.332C602.958 163.139 644.573 164.251 665.956 164.487L680.288 212.193C682.394 219.218 684.661 228.126 686.994 234.813C686.582 235.173 686.17 235.541 685.758 235.901C664.087 236.798 630.621 235.034 610.098 236.996C607.977 230.558 603.451 220.108 600.821 213.493C594.388 197.502 588.113 181.446 581.994 165.332Z" stroke="#1B2A2E" stroke-width="32" mask="url(#path-1-outside-1_50_75)"/>
<path d="M710.057 165.015C716.317 145.973 729.153 99.3514 738.66 85.6755C742.179 80.6207 746.653 76.7058 752.201 74.0015C761.899 69.2659 774.08 68.7422 784.249 72.3629C793.954 75.8173 802.322 82.6424 806.657 92.1358C812.652 105.27 809.692 118.15 804.666 130.871C798.906 145.436 792.69 159.829 786.996 174.419C778.003 196.221 769.15 218.079 760.444 239.996C747.506 236.297 704.415 237.473 689.206 235.525C688.802 235.135 688.398 234.737 687.994 234.348C695.635 212.291 703.004 187.396 710.057 165.015Z" stroke="#1B2A2E" stroke-width="32" mask="url(#path-1-outside-1_50_75)"/>
<path d="M687.994 234.346C695.635 212.284 703.004 187.383 710.057 164.996C714.781 166.428 731.892 167.321 737.755 167.967C754.264 169.784 770.61 171.303 786.994 174.402C778.001 196.21 769.148 218.074 760.442 239.996C747.504 236.296 704.415 237.473 689.206 235.523C688.802 235.133 688.398 234.736 687.994 234.346Z" stroke="#1B2A2E" stroke-width="32" mask="url(#path-1-outside-1_50_75)"/>
<path d="M686.812 235.003L687.481 234.996C687.886 235.384 688.29 235.779 688.695 236.167C703.917 238.106 747.045 236.935 759.994 240.615C751.302 261.247 743.544 282.246 734.617 302.871C728.639 316.684 720.624 327.959 705.961 333.643C693.452 338.494 674.686 338.041 662.421 332.546C654.347 328.888 647.427 323.115 642.397 315.843C636.363 307.18 631.298 291.267 627.245 280.797L609.994 237.176C630.496 235.223 663.928 236.979 685.577 236.086C685.989 235.728 686.4 235.362 686.812 235.003Z" stroke="#1B2A2E" stroke-width="32" mask="url(#path-1-outside-1_50_75)"/>
</svg>
