<?xml version="1.0" encoding="UTF-8"?>
<svg width="1200pt" height="1200pt" version="1.1" viewBox="0 0 1200 1200" xmlns="http://www.w3.org/2000/svg">
 <path d="m715.2 339.6c-7.1992 40.801-14.398 81.602-37.199 116.4-2.3984 3.6016-7.1992 7.1992-3.6016 9.6016 3.6016 2.3984 7.1992-3.6016 9.6016-7.1992 25.199-34.801 45.602-73.199 51.602-116.4 3.6016-25.199 12-46.801 25.199-68.398 12-20.398 20.398-44.398 33.602-64.801 24-37.199 48-75.602 75.602-110.4 12-15.602 27.602-27.602 45.602-33.602s34.801-4.8008 51.602 4.8008c39.602 22.801 78 49.199 111.6 81.602 13.199 12 19.199 27.602 19.199 44.398 0 19.199-2.3984 37.199-9.6016 55.199-30.008 68.395-69.605 133.2-116.41 193.2-8.3984 10.801-15.602 22.801-24 33.602-7.1992 8.3984-15.602 14.398-24 22.801-25.199 22.801-50.398 46.801-68.398 75.602-2.3984 4.8008-6 8.3984-6 14.398 6-1.1992 7.1992-7.1992 9.6016-10.801 22.801-26.398 50.398-49.199 78-69.602 2.3984-2.3984 4.8008-3.6016 6 1.1992 6 34.801 20.398 67.199 25.199 102 3.6016 30 2.3984 58.801-9.6016 87.602-1.1992 3.6016-3.6016 6-4.8008 8.3984-8.3984 13.199-16.801 13.199-24-2.3984-6-13.199-10.801-25.199-18-37.199-8.3984-14.398-20.398-26.398-32.398-37.199-6-4.8008-10.801-6-19.199-3.6016-14.398 6-30 8.3984-44.398 0-3.6016-2.3984-6-1.1992-8.3984 1.1992-16.801 15.602-33.602 30-49.199 45.602-21.602 21.602-45.602 40.801-68.398 60-34.801 27.602-70.801 54-108 79.199-30 20.398-62.398 36-96 50.398-33.602 14.398-67.199 28.801-103.2 38.398-14.398 3.6016-28.801 7.1992-43.199 9.6016-19.199 3.6016-24 8.3984-24 27.602 0 8.3984 0 16.801 1.1992 25.199 1.1992 12-4.8008 16.801-16.801 13.199-8.3984-2.3984-18-3.6016-26.398-4.8008-10.801-1.1992-19.199 1.1992-26.398 7.1992-56.398 38.398-98.398 87.602-124.8 151.2-2.4102 2.4023-3.6094 8.4023-10.809 7.2031-6-1.1992-7.1992-7.1992-7.1992-13.199-1.1992-21.602 6-40.801 14.398-60 31.199-67.199 76.801-122.4 134.4-169.2 19.199-15.602 42-18 64.801-22.801 4.8008-1.1992 13.199 0 13.199-6 0-4.8008-8.3984-2.3984-13.199-2.3984-7.1992-1.1992-14.398 1.1992-20.398 2.3984-2.3984 0-6 3.6016-7.1992 1.1992-1.1992-2.3984 1.1992-6 2.3984-8.3984 9.6016-20.398 27.602-34.801 48-43.199 46.801-21.602 90-45.602 130.8-75.602 58.801-43.199 111.6-92.398 154.8-151.2 13.199-18 24-36 32.398-56.398 2.3984-4.8008 2.3984-7.1992-2.3984-10.801-12-8.3984-15.602-21.602-15.602-34.801 0-19.199-12-25.199-25.199-31.199-10.801-4.8008-22.801-7.1992-34.801-9.6016-24-3.6016-48-10.801-70.801-16.801-9.6016-2.3984-12-8.3984-7.1992-18 8.3984-15.602 22.801-26.398 38.398-34.801 27.602-15.602 57.602-18 87.602-22.801 20.398-2.3984 42 0 61.199-7.1992 8.3984-2.3984 15.602-7.1992 25.199-9.5977zm225.6-68.402c0-1.1992-1.1992-2.3984-1.1992-2.3984-3.6016-1.1992-3.6016 2.3984-4.8008 3.6016-12 25.199-27.602 48-43.199 72-61.203 99.598-123.6 199.2-194.4 291.6-1.1992 2.3984-6 4.8008-3.6016 7.1992 3.6016 2.3984 4.8008-2.3984 7.1992-4.8008 1.1992 0 1.1992-1.1992 2.3984-2.3984 21.602-27.602 44.398-54 64.801-81.602 58.801-79.199 115.2-160.8 158.4-249.6 4.8047-10.797 9.6055-21.598 14.406-33.598zm-260.4 397.2c0-6-2.3984-10.801-9.6016-7.1992-18 7.1992-34.801 14.398-46.801 31.199-8.3984 10.801-16.801 21.602-27.602 30-4.8008 3.6016-8.3984 8.3984-12 12-2.3984 3.6016-4.8008 7.1992-1.1992 10.801 2.3984 3.6016 7.1992 2.3984 10.801 1.1992 13.199-7.1992 26.398-16.801 40.801-21.602 20.398-7.1992 31.199-24 42-40.801 1.2031-5.9961 3.6016-9.5977 3.6016-15.598zm-314.4 193.2c1.1992 0 2.3984-1.1992 4.8008-1.1992 20.398-6 39.602-14.398 61.199-16.801 20.398-2.3984 34.801-14.398 48-28.801 1.1992-2.3984 4.8008-3.6016 2.3984-6-1.1992-2.3984-4.8008-3.6016-7.1992-3.6016-15.602 2.3984-32.398 4.8008-45.602 15.602-6 4.8008-13.199 7.1992-20.398 10.801-15.602 7.1992-31.199 14.398-45.602 24-2.3984 1.1992-3.6016 2.3984-3.6016 6h6.0039zm205.2-103.2c-1.1992-1.1992-1.1992-2.3984-2.3984-2.3984-2.3984-1.1992-4.8008 1.1992-6 2.3984-16.801 13.199-36 24-55.199 33.602-2.3984 1.1992-6 2.3984-4.8008 6 1.1992 2.3984 4.8008 1.1992 8.3984 0 20.398-7.1992 38.398-19.199 55.199-33.602 1.2031-1.1992 2.4023-3.5977 4.8008-6zm451.2-468c0-3.6016-2.3984-6-7.1992-6s-7.1992 2.3984-8.3984 7.1992c0 3.6016 2.3984 6 6 6 6 0.003906 9.5977-2.3984 9.5977-7.1992zm-421.2 364.8c-3.6016 0-7.1992 1.1992-7.1992 6s3.6016 6 7.1992 6c3.6016 0 7.1992-1.1992 7.1992-6s-3.5977-6-7.1992-6zm342-453.6c0-3.6016-2.3984-6-6-6-3.6016 0-7.1992 1.1992-7.1992 6 0 4.8008 2.3984 7.1992 7.1992 7.1992 2.4023-1.1992 4.8008-3.6016 6-7.1992zm-154.8 282c0-3.6016-2.3984-6-7.1992-6-3.6016 0-7.1992 1.1992-6 6 0 4.8008 3.6016 6 7.1992 6 3.6016 0 6-2.4023 6-6zm-266.4 352.8c0-3.6016-2.3984-6-6-6s-6 2.3984-7.1992 6c0 3.6016 1.1992 6 6 7.1992 3.5977-1.1992 6-3.5977 7.1992-7.1992zm-84-60c-3.6016 0-6 1.1992-6 6 0 3.6016 2.3984 6 6 6 4.8008 0 7.1992-2.3984 7.1992-6 0-3.5977-2.3984-6-7.1992-6zm182.4-352.8c0 3.6016 2.3984 6 7.1992 4.8008 3.6016 0 6-2.3984 6-6 0-3.6016-2.3984-6-6-6-3.5977-0.003906-7.1992 2.3984-7.1992 7.1992zm456-210c-3.6016 0-7.1992 2.3984-6 6 0 4.8008 3.6016 6 7.1992 6 3.6016 0 6-2.3984 6-6 0.003906-4.8008-2.3984-6-7.1992-6zm1.2031-32.402c0-3.6016-2.3984-6-6-6-3.6016 0-7.1992 1.1992-7.1992 6s2.3984 7.1992 7.1992 7.1992c3.5977-1.1992 6-3.5977 6-7.1992zm-201.6 418.8c-3.6016 0-6 1.1992-7.1992 6 0 3.6016 2.3984 6 6 6 3.6016 0 7.1992-1.1992 7.1992-6 1.1992-3.6016-2.3984-6-6-6zm-397.2 154.8c-3.6016 1.1992-6 2.3984-6 7.1992 0 3.6016 3.6016 6 7.1992 6 3.6016 0 6-2.3984 6-6 0-4.8008-2.3984-7.1992-7.1992-7.1992zm415.2-597.6c-3.6016 1.1992-7.1992 2.3984-6 7.1992 0 3.6016 3.6016 6 7.1992 4.8008 3.6016 0 6-2.3984 6-6 0-3.5977-2.3984-6-7.1992-6zm45.602 522c3.6016 0 6-2.3984 6-6 0-3.6016-2.3984-6-6-6-3.6016 0-6 2.3984-7.1992 6-0.003906 4.8008 2.3984 6 7.1992 6zm-199.2 0c3.6016 0 7.1992-2.3984 7.1992-7.1992 0-3.6016-2.3984-4.8008-6-6-4.8008 0-7.1992 1.1992-7.1992 6-1.1992 4.8008 1.2031 6 6 7.1992zm-228 61.199c0-3.6016-2.3984-6-7.1992-6-3.6016 0-7.1992 1.1992-6 6 0 3.6016 2.3984 6 6 6 4.8008 0 6-2.3984 7.1992-6zm145.2-114c-3.6016 0-6 2.3984-6 6 0 3.6016 2.3984 6 6 6 3.6016 0 7.1992-1.1992 7.1992-6-1.1992-2.3984-3.6016-4.7969-7.1992-6zm37.199-67.199c0-3.6016-2.3984-6-6-6-3.6016 0-7.1992 2.3984-7.1992 6 0 3.6016 3.6016 6 7.1992 6 2.3984 0 4.8008-1.1992 6-6zm252-414c-1.1992-3.6016-2.3984-6-7.1992-6-3.6016 0-7.1992 2.3984-7.1992 7.1992 0 3.6016 3.6016 6 7.1992 4.8008 4.7969 0 7.1992-1.1992 7.1992-6zm110.4 130.8c-2.3984 0-6 2.3984-6 6 0 4.8008 2.3984 6 7.1992 6 3.6016 0 6-2.3984 6-6 0-4.8008-2.3984-6-7.1992-6zm-462 519.6c3.6016 0 6-2.3984 6-7.1992 0-3.6016-2.3984-6-6-6-4.8008 0-7.1992 2.3984-7.1992 6 0 4.7969 2.3984 7.1992 7.1992 7.1992zm-141.6 58.797c0-3.6016-2.3984-6-7.1992-6-3.6016 0-6 1.1992-6 6 0 3.6016 2.3984 6 6 6 4.7969 0 7.1992-2.3984 7.1992-6zm331.2-553.2c-1.1992-3.6016-2.3984-6-7.1992-6-3.6016 0-7.1992 2.3984-6 7.1992 0 3.6016 3.6016 4.8008 7.1992 4.8008 3.5977 0 4.8008-2.3984 6-6zm-424.8 580.8c-3.6016 0-6 1.1992-7.1992 6 0 3.6016 1.1992 7.1992 6 7.1992 3.6016 0 7.1992-2.3984 7.1992-7.1992 0-3.6016-2.3984-4.8008-6-6zm586.8-790.8c-3.6016 0-7.1992 1.1992-7.1992 6 0 3.6016 2.3984 6 6 6 3.6016 0 6-1.1992 7.1992-6 0-4.8008-2.4023-6-6-6zm-598.8 750c0-3.6016-2.3984-6-6-6s-6 2.3984-6 6c0 4.8008 2.3984 6 6 6s6-1.1992 6-6zm673.2-708c3.6016 0 7.1992-1.1992 7.1992-4.8008 0-3.6016-2.3984-6-6-6-3.6016 0-6 1.1992-7.1992 6-1.1992 2.4023 1.1992 4.8008 6 4.8008zm-411.6 630c0-3.6016-2.3984-6-6-6-3.6016 0-6 1.1992-6 6 0 3.6016 2.3984 6 6 7.1992 3.5977-1.1992 4.7969-3.5977 6-7.1992zm66-373.2c3.6016 0 6-2.3984 6-6s-2.3984-6-6-6c-3.6016 0-6 2.3984-6 6 0 4.8008 2.3984 6 6 6zm240 249.6c-3.6016 0-6 2.3984-6 6 0 3.6016 2.3984 6 6 6 3.6016 0 6-2.3984 6-6 0-3.6016-2.4023-4.8008-6-6zm-243.6-230.4c-4.8008 0-7.1992 2.3984-7.1992 7.1992 0 3.6016 2.3984 6 6 6 4.8008 0 7.1992-2.3984 7.1992-6 1.1992-4.7969-1.1992-6-6-7.1992zm-15.602 186c3.6016 0 7.1992-2.3984 7.1992-7.1992 0-3.6016-2.3984-6-6-6-3.6016 0-7.1992 2.3984-7.1992 6 0 4.8008 2.4023 7.1992 6 7.1992zm236.4-482.4c3.6016 0 6-2.3984 6-6 0-3.6016-2.3984-6-6-6-3.6016 0-6 2.3984-6 6 0 3.5977 2.3984 6 6 6zm-102 238.8c-3.6016 0-6 2.3984-6 4.8008 0 3.6016 1.1992 6 4.8008 6 3.6016 0 6-2.3984 6-6 1.1992-2.4023-1.2031-3.6016-4.8008-4.8008zm130.8 13.199c0-4.8008-2.3984-6-7.1992-6-3.6016 0-6 2.3984-6 7.1992 0 3.6016 2.3984 6 6 6 4.7969 0 7.1992-2.3984 7.1992-7.1992zm-288 32.398c3.6016 0 6-2.3984 6-6 0-3.6016-3.6016-6-7.1992-6-3.6016 0-6 2.3984-6 6-0.003906 4.8008 3.5977 6 7.1992 6zm-66 295.2c3.6016 0 6-2.3984 6-6 0-3.6016-2.3984-6-6-6-3.6016 0-6 1.1992-7.1992 6 1.1992 3.6016 3.5977 4.8008 7.1992 6zm241.2-448.8c2.3984-1.1992 6-2.3984 6-6 0-3.6016-2.3984-6-6-6-3.6016 0-6 1.1992-6 6 0 3.5977 2.3984 4.7969 6 6zm-18 158.4c-3.6016 0-6 2.3984-6 6s2.3984 6 6 6c3.6016 0 6-2.3984 6-6s-2.4023-6-6-6zm90 7.1992c0 3.6016 2.3984 6 6 7.1992 3.6016 0 6-2.3984 6-6 0-3.6016-1.1992-6-6-7.1992-3.6016 0-4.8008 2.4023-6 6zm-182.4 105.6c3.6016 0 6-2.3984 6-6 0-3.6016-2.3984-6-6-6-3.6016 0-6 2.3984-6 6 0 3.5977 2.4023 6 6 6zm-48-73.199c-3.6016 0-6 1.1992-6 6 0 3.6016 2.3984 6 6 6 3.6016 0 6-1.1992 7.1992-6 0.003906-4.8008-2.3984-6-7.1992-6zm348-206.4c-3.6016 0-6 2.3984-6 6 0 3.6016 1.1992 6 6 7.1992 3.6016 0 6-2.3984 6-6 0-4.7969-2.3984-7.1992-6-7.1992zm-256.8 258c3.6016 0 6-2.3984 6-6 0-3.6016-3.6016-6-7.1992-6-3.6016 0-6 2.3984-6 7.1992-0.003906 2.4023 3.5977 4.8008 7.1992 4.8008zm283.2-336c-2.3984 1.1992-4.8008 2.3984-4.8008 6 0 3.6016 2.3984 6 6 6s4.8008-2.3984 4.8008-6c0-3.5977-1.1992-4.8008-6-6zm-476.4 258c0-3.6016-2.3984-4.8008-6-6-4.8008 0-7.1992 2.3984-7.1992 7.1992 0 3.6016 2.3984 6 6 6 3.6016 0 6-3.5977 7.1992-7.1992zm490.8-176.4c0-4.8008-3.6016-6-7.1992-6-3.6016 0-6 2.3984-6 6 0 3.6016 2.3984 6 6 6 4.8008 0 7.1992-1.1992 7.1992-6zm-106.8 84c-3.6016 1.1992-6 2.3984-4.8008 6 0 3.6016 2.3984 6 6 4.8008 3.6016 0 6-2.3984 4.8008-6 0-3.6016-2.3984-4.8008-6-4.8008zm-105.6 214.8c2.3984 0 4.8008-2.3984 4.8008-6 0-3.6016-2.3984-6-4.8008-6-3.6016 0-6 2.3984-6 6 0 3.5977 2.3984 6 6 6zm152.4-430.8c3.6016 0 6-2.3984 4.8008-6 0-3.6016-2.3984-4.8008-6-4.8008s-4.8008 2.3984-4.8008 6 2.4023 4.8008 6 4.8008zm-140.4 235.2c3.6016 0 6-1.1992 6-4.8008 0-3.6016-1.1992-6-4.8008-6s-6 1.1992-6 6c-1.1992 2.4023 1.1992 3.6016 4.8008 4.8008zm-277.2 472.8c0-3.6016-2.3984-6-6-6-3.6016 0-6 2.3984-4.8008 6 0 3.6016 2.3984 6 6 6 2.3984 0 4.8008-2.4023 4.8008-6zm291.6-436.8c3.6016 0 6-2.3984 4.8008-6 0-3.6016-2.3984-6-6-4.8008-3.6016 0-6 2.3984-4.8008 6 0 2.4023 2.4023 4.8008 6 4.8008zm-313.2 369.6c0-3.6016-1.1992-6-4.8008-6-3.6016 0-6 1.1992-6 4.8008 0 3.6016 1.1992 6 6 7.1992 2.4023-1.2031 4.8008-3.6016 4.8008-6zm110.4-14.402c0-3.6016-2.3984-6-6-6-3.6016 0-6 2.3984-6 4.8008 0 3.6016 2.3984 6 4.8008 6 4.8008 0 6-2.3984 7.1992-4.8008zm280.8-325.2c0-3.6016-2.3984-6-4.8008-6-3.6016 0-6 1.1992-6 4.8008 0 3.6016 1.1992 6 6 7.1992 2.4023 0 3.6016-2.3984 4.8008-6zm-344.4 24c0-3.6016-2.3984-6-6-6-3.6016 0-6 2.3984-6 6s2.3984 6 6 6c3.5977 0 4.8008-2.3984 6-6zm187.2 174c-1.1992-2.3984-2.3984-4.8008-6-4.8008s-6 2.3984-6 6c0 3.6016 2.3984 4.8008 6 4.8008 4.8008 0 6-2.3984 6-6zm169.2 24c0-3.6016-2.3984-4.8008-6-4.8008-3.6016 0-4.8008 2.3984-4.8008 6 0 3.6016 2.3984 6 6 4.8008 3.6016 0 4.8008-2.3984 4.8008-6zm-13.199-85.199c2.3984 0 4.8008-2.3984 4.8008-6 0-3.6016-2.3984-6-4.8008-6-3.6016 0-6 2.3984-6 6 0 3.5977 2.3984 4.8008 6 6zm46.801-175.2c0-3.6016-2.3984-6-6-6-3.6016 0-6 2.3984-6 4.8008 0 3.6016 2.3984 6 6 6 3.5977 1.1992 6-1.2031 6-4.8008zm-121.2 116.4c0-3.6016-1.1992-6-4.8008-6-3.6016 0-6 1.1992-6 4.8008 0 3.6016 1.1992 6 4.8008 6 3.5977 1.1992 6-1.1992 6-4.8008zm-19.203 79.199c0-3.6016-2.3984-6-6-6-3.6016 0-6 2.3984-6 6 0 3.6016 2.3984 6 6 6 3.6016 0 6-2.3984 6-6zm-33.598 9.6016c2.3984 0 4.8008-1.1992 6-4.8008 0-3.6016-2.3984-6-6-6-3.6016 0-6 1.1992-6 4.8008 0 3.5977 2.3984 6 6 6zm108-3.6016c0-3.6016-2.3984-6-6-6-3.6016 0-6 2.3984-6 6 0 3.6016 2.3984 6 6 6 3.5977 0 6-2.3984 6-6zm27.598 14.402c0-3.6016-2.3984-6-6-4.8008-3.6016 0-4.8008 2.3984-4.8008 6 0 3.6016 2.3984 6 6 4.8008 2.4023 0 4.8008-2.4023 4.8008-6zm48-452.4c-3.6016 0-6 2.3984-6 4.8008 0 3.6016 2.3984 6 6 6 3.6016 0 6-2.3984 6-6-1.1992-2.3984-3.5977-3.6016-6-4.8008zm-276 572.4c-1.1992-3.6016-2.3984-6-6-4.8008-3.6016 0-6 2.3984-4.8008 6 0 3.6016 2.3984 4.8008 6 4.8008 2.4023-1.2031 4.8008-3.6016 4.8008-6zm170.4-182.4c0-3.6016-2.3984-4.8008-6-4.8008-3.6016 0-4.8008 2.3984-4.8008 6 0 3.6016 2.3984 6 6 4.8008 3.6016 0 4.8008-2.3984 4.8008-6zm-75.602-81.598c-3.6016 0-6 2.3984-6 4.8008 0 3.6016 2.3984 6 4.8008 6 3.6016 0 6-1.1992 6-4.8008 1.1992-3.6016-1.1992-6-4.8008-6zm250.8-285.6c3.6016 0 6-2.3984 4.8008-6 0-3.6016-2.3984-4.8008-6-4.8008-3.6016 0-6 2.3984-4.8008 6 0 2.4023 2.3984 4.8008 6 4.8008zm-163.2 320.4c0-3.6016-2.3984-6-6-4.8008-3.6016 0-6 2.3984-6 6 0 3.6016 2.3984 4.8008 6 4.8008 3.5977 0 6-2.3984 6-6zm127.2-142.8c0-3.6016-1.1992-6-4.8008-6-3.6016 0-6 2.3984-6 6 0 3.6016 1.1992 6 4.8008 6s4.8008-2.4023 6-6zm-186 72c0-3.6016-2.3984-6-4.8008-6-3.6016 0-6 1.1992-6 4.8008 0 3.6016 1.1992 6 4.8008 6 3.6016-0.003906 6-2.4023 6-4.8008zm64.801-106.8c3.6016 0 6-2.3984 6-6 0-3.6016-2.3984-6-6-4.8008-3.6016 0-6 2.3984-6 6 0 2.3984 2.3984 4.8008 6 4.8008zm-336 495.6c3.6016 0 6-1.1992 6-4.8008 0-3.6016-1.1992-6-4.8008-6s-6 1.1992-6 4.8008c-1.1992 3.6016 1.1992 4.8008 4.8008 6zm-136.8 15.602c0-3.6016-2.3984-6-4.8008-6-3.6016 0-6 2.3984-6 6s2.3984 6 4.8008 6c3.6016-1.1992 6-3.6016 6-6zm267.6-210c0-3.6016-1.1992-6-4.8008-6-3.6016 0-6 2.3984-6 4.8008 0 3.6016 1.1992 6 4.8008 6 3.5977 1.1992 6-1.1992 6-4.8008zm-187.2 174c0-3.6016-2.3984-6-6-4.8008-3.6016 0-4.8008 2.3984-4.8008 4.8008 0 3.6016 2.3984 6 4.8008 6 3.6016 0 6-2.3984 6-6zm-128.4 56.398c0-3.6016-2.3984-6-6-6s-4.8008 2.3984-4.8008 6c0 3.6016 2.3984 6 6 6 3.6016 0 4.8008-2.3984 4.8008-6zm590.4-517.2c0-3.6016-2.3984-4.8008-6-4.8008-3.6016 0-6 2.3984-6 6 0 3.6016 2.3984 4.8008 6 4.8008 4.8008-1.1992 6-3.5977 6-6zm70.801-116.4c0-3.6016-2.3984-6-6-6-3.6016 0-6 1.1992-6 4.8008 0 3.6016 2.3984 6 4.8008 6 4.8008 0 6-1.2031 7.1992-4.8008zm-331.2 480c0-3.6016-2.3984-4.8008-6-4.8008s-6 2.3984-6 6 2.3984 4.8008 6 4.8008 6-2.4023 6-6zm-117.6-285.6c-3.6016 0-6 2.3984-6 6 0 3.6016 2.3984 6 6 4.8008 3.6016 0 4.8008-2.3984 4.8008-4.8008 1.1992-3.5977-1.1992-4.8008-4.8008-6zm20.402 297.6c-1.1992-3.6016-2.3984-6-6-4.8008-3.6016 0-4.8008 2.3984-4.8008 6s2.3984 6 6 4.8008c3.6016 0 4.8008-2.4023 4.8008-6zm140.4-254.4c0-3.6016-2.3984-4.8008-6-4.8008-3.6016 0-4.8008 2.3984-4.8008 4.8008 0 3.6016 2.3984 6 6 6 3.6016 0 4.8008-2.3984 4.8008-6zm16.801 211.2c3.6016 0 6-2.3984 6-6 0-3.6016-2.3984-6-6-6s-4.8008 2.3984-4.8008 4.8008c-1.1992 4.7969 1.1992 7.1992 4.8008 7.1992zm216-450c3.6016 0 6-2.3984 6-4.8008 0-3.6016-1.1992-6-4.8008-6-3.6016 0-6 2.3984-6 4.8008-1.1992 3.5977 1.1992 4.7969 4.8008 6zm-507.6 656.4c-3.6016 0-4.8008 2.3984-4.8008 6s2.3984 6 6 6c3.6016 0 4.8008-2.3984 4.8008-6 0-4.8008-2.3984-6-6-6zm394.8-416.4c-3.6016 0-4.8008 2.3984-4.8008 6 0 3.6016 2.3984 6 6 4.8008 3.6016 0 4.8008-2.3984 4.8008-6 0-2.4023-2.3984-4.8008-6-4.8008zm-230.4 325.2c0-3.6016-2.3984-6-4.8008-6-3.6016 0-6 2.3984-6 6 0 3.6016 1.1992 6 4.8008 6 3.5977 0 6-2.4023 6-6zm319.2-514.8c0-3.6016-1.1992-6-4.8008-6-3.6016 0-6 2.3984-6 4.8008 0 3.6016 1.1992 6 4.8008 6 3.6016 1.1992 4.8008-1.1992 6-4.8008zm-145.2 354c-3.6016 0-6 2.3984-4.8008 6 0 3.6016 2.3984 4.8008 6 4.8008s4.8008-2.3984 4.8008-6c0-3.6016-2.4023-4.8008-6-4.8008zm-325.2 229.2c-3.6016 0-6 2.3984-4.8008 6 0 3.6016 2.3984 4.8008 4.8008 4.8008 3.6016 0 6-1.1992 6-4.8008-1.2031-3.5977-2.4023-6-6-6zm403.2-577.2c0-3.6016-2.3984-4.8008-6-4.8008-3.6016 0-6 2.3984-4.8008 6 0 3.6016 2.3984 4.8008 4.8008 4.8008 3.5977 0 6-1.1992 6-6zm-54 25.199c0-3.6016-2.3984-4.8008-6-4.8008-3.6016 0-6 2.3984-4.8008 6 0 3.6016 2.3984 4.8008 4.8008 4.8008 3.5977-1.1992 6-2.3984 6-6zm-368.4 512.4c0-3.6016-1.1992-6-4.8008-6-3.6016 0-6 2.3984-6 6 0 3.6016 1.1992 4.8008 4.8008 4.8008 3.6016 1.1992 6-1.2031 6-4.8008zm445.2-177.6c0-3.6016-1.1992-6-4.8008-6-3.6016 0-4.8008 1.1992-6 4.8008 0 3.6016 1.1992 6 4.8008 6 3.5977 1.1992 4.7969-1.1992 6-4.8008zm-160.8-82.801c0-3.6016-2.3984-4.8008-6-4.8008-3.6016 0-4.8008 2.3984-4.8008 6 0 3.6016 2.3984 4.8008 4.8008 4.8008 4.8008-1.1992 6-2.3984 6-6zm93.598-358.8c-3.6016 0-4.8008 2.3984-4.8008 6 0 3.6016 2.3984 4.8008 6 4.8008 3.6016 0 4.8008-2.3984 4.8008-6-1.1992-2.3984-3.5977-4.8008-6-4.8008zm-271.2 549.6c0-3.6016-1.1992-6-4.8008-6-3.6016 0-4.8008 1.1992-6 4.8008 0 3.6016 1.1992 6 4.8008 6 3.6016 1.1992 4.8008-1.1992 6-4.8008zm-38.398 1.1992c3.6016 0 6-2.3984 4.8008-6 0-3.6016-2.3984-4.8008-6-4.8008-3.6016 0-4.8008 2.3984-4.8008 4.8008 1.1992 3.6016 2.3984 6 6 6zm139.2-10.801c3.6016 0 6-2.3984 4.8008-6 0-2.3984-2.3984-4.8008-4.8008-4.8008-3.6016 0-6 1.1992-6 4.8008 0 4.8008 2.3984 6 6 6zm334.8-349.2c-3.6016 0-6 2.3984-4.8008 6 0 2.3984 2.3984 4.8008 4.8008 4.8008 3.6016 0 6-1.1992 6-4.8008-1.1992-3.5977-3.6016-4.8008-6-6zm-488.4 458.4c3.6016 0 6-1.1992 6-4.8008 0-3.6016-2.3984-6-6-6-3.6016 0-4.8008 1.1992-4.8008 4.8008 0.003906 3.5977 2.4023 4.7969 4.8008 6zm108-165.6c-3.6016 0-6 2.3984-4.8008 6 0 3.6016 2.3984 6 6 4.8008 3.6016 0 4.8008-2.3984 4.8008-4.8008 0-3.6016-1.1992-4.8008-6-6zm102-1.1992c3.6016 0 4.8008-2.3984 4.8008-6 0-3.6016-2.3984-4.8008-4.8008-4.8008-3.6016 0-6 2.3984-6 6s2.4023 4.8008 6 4.8008zm241.2-234c0-3.6016-2.3984-4.8008-6-4.8008-3.6016 0-4.8008 2.3984-4.8008 6s2.3984 4.8008 4.8008 4.8008c3.5977-1.1992 6-2.4023 6-6zm-42 38.398c0-3.6016-2.3984-4.8008-6-4.8008-3.6016 0-4.8008 2.3984-4.8008 4.8008 0 3.6016 2.3984 6 6 6 2.3984-1.1992 4.8008-2.3984 4.8008-6zm-61.203-128.4c0 3.6016 2.3984 4.8008 6 4.8008 3.6016 0 4.8008-2.3984 4.8008-6 0-3.6016-2.3984-4.8008-6-4.8008-3.5977 1.1992-4.8008 2.3984-4.8008 6zm-13.199-104.4c0-3.6016-2.3984-6-6-6-2.3984 0-4.8008 1.1992-4.8008 4.8008 0 3.6016 1.1992 6 4.8008 6 3.6016 1.1992 6-1.1992 6-4.8008zm-230.4 396c-3.6016 0-4.8008 2.3984-4.8008 6 0 3.6016 2.3984 4.8008 4.8008 4.8008 3.6016 0 6-2.3984 4.8008-6 1.1992-3.5977-1.2031-4.8008-4.8008-4.8008zm88.801-58.797c0 3.6016 2.3984 6 6 6 2.3984 0 4.8008-1.1992 4.8008-4.8008 0-3.6016-1.1992-6-4.8008-6-3.6016-1.1992-4.8008 1.1992-6 4.8008zm-319.2 310.8c0-3.6016-2.3984-6-6-4.8008-2.3984 0-4.8008 1.1992-4.8008 4.8008 0 3.6016 1.1992 6 4.8008 6 3.6016-1.1992 4.8008-2.3984 6-6zm495.6-663.6c-3.6016 0-6 2.3984-6 6 0 2.3984 1.1992 4.8008 4.8008 4.8008 3.6016 0 6-1.1992 6-4.8008 1.1992-3.6016-1.1992-6-4.8008-6z"/>
</svg>
