<svg width="1600" height="1600" viewBox="0 0 1600 1600" fill="none" xmlns="http://www.w3.org/2000/svg">
<rect width="1600" height="1600" fill="#1E1E1E"/>
<path d="M953.6 452.8C944.001 507.201 934.403 561.603 904.001 608C900.803 612.802 894.402 617.599 899.199 620.802C904.001 624 908.798 616 912.001 611.203C945.6 564.802 972.804 513.605 980.804 456.003C985.606 422.405 996.804 393.602 1014.4 364.806C1030.4 337.609 1041.6 305.609 1059.21 278.405C1091.21 228.806 1123.21 177.602 1160.01 131.205C1176.01 110.402 1196.81 94.4019 1220.81 86.4019C1244.81 78.4019 1267.21 80.0008 1289.61 92.8029C1342.42 123.204 1393.61 158.402 1438.41 201.606C1456.01 217.606 1464.01 238.408 1464.01 260.803C1464.01 286.402 1460.81 310.402 1451.21 334.402C1411.2 425.595 1358.4 512.002 1296 592.002C1284.8 606.403 1275.19 622.403 1264 636.804C1254.4 648.002 1243.19 656.002 1232 667.206C1198.4 697.607 1164.8 729.607 1140.8 768.008C1137.6 774.409 1132.8 779.206 1132.8 787.206C1140.8 785.607 1142.4 777.607 1145.6 772.804C1176 737.607 1212.8 707.206 1249.6 680.002C1252.8 676.804 1256 675.199 1257.6 681.601C1265.6 728.002 1284.8 771.199 1291.2 817.601C1296 857.601 1294.4 896.002 1278.4 934.403C1276.8 939.205 1273.6 942.403 1272 945.601C1260.8 963.2 1249.6 963.2 1240 942.403C1232 924.805 1225.6 908.805 1216 892.805C1204.8 873.607 1188.8 857.607 1172.8 843.206C1164.8 836.805 1158.4 835.206 1147.2 838.404C1128 846.404 1107.2 849.602 1088 838.404C1083.2 835.206 1080 836.805 1076.81 840.003C1054.4 860.805 1032 880.003 1011.21 900.805C982.404 929.608 950.404 955.207 920.01 980.805C873.608 1017.61 825.608 1052.81 776.01 1086.4C736.01 1113.6 692.812 1134.4 648.01 1153.6C603.207 1172.8 558.411 1192 510.41 1204.8C491.212 1209.6 472.008 1214.4 452.811 1217.6C427.212 1222.4 420.811 1228.8 420.811 1254.4C420.811 1265.6 420.811 1276.8 422.41 1288C424.009 1304 416.009 1310.4 400.009 1305.6C388.811 1302.4 376.009 1300.8 364.811 1299.2C350.41 1297.6 339.213 1300.8 329.614 1308.8C254.417 1360 198.417 1425.6 163.214 1510.4C160 1513.6 158.401 1521.6 148.802 1520C140.802 1518.4 139.203 1510.4 139.203 1502.4C137.604 1473.6 147.203 1448 158.4 1422.4C199.999 1332.81 260.802 1259.2 337.6 1196.8C363.199 1176 393.6 1172.8 424.002 1166.4C430.403 1164.8 441.6 1166.4 441.6 1158.4C441.6 1152 430.402 1155.2 424.002 1155.2C414.403 1153.61 404.804 1156.8 396.804 1158.4C393.606 1158.4 388.804 1163.2 387.205 1160C385.606 1156.8 388.804 1152 390.403 1148.8C403.205 1121.61 427.206 1102.4 454.403 1091.21C516.805 1062.4 574.403 1030.4 628.803 990.403C707.205 932.804 777.603 867.205 835.203 788.803C852.802 764.803 867.203 740.803 878.401 713.605C881.598 707.204 881.598 704.006 875.203 699.204C859.203 688.006 854.4 670.401 854.4 652.803C854.4 627.204 838.4 619.204 820.801 611.204C806.4 604.803 790.4 601.605 774.4 598.402C742.4 593.6 710.4 584 679.999 576C667.197 572.803 663.999 564.803 670.4 552C681.598 531.198 700.801 516.803 721.597 505.599C758.4 484.796 798.4 481.599 838.4 475.198C865.597 472 894.4 475.198 919.998 465.599C931.196 462.401 940.801 456 953.597 452.802L953.6 452.8ZM1254.4 361.597C1254.4 359.998 1252.8 358.399 1252.8 358.399C1248 356.801 1248 361.597 1246.4 363.202C1230.4 396.8 1209.6 427.202 1188.8 459.202C1107.2 591.999 1024 724.802 929.601 848.002C928.002 851.2 921.601 854.403 924.799 857.601C929.601 860.798 931.2 854.403 934.398 851.199C935.997 851.199 935.997 849.601 937.596 848.002C966.399 811.199 996.793 776.002 1024 739.199C1102.4 633.6 1177.6 524.799 1235.2 406.399C1241.6 392.003 1248 377.602 1254.41 361.602L1254.4 361.597ZM907.2 891.197C907.2 883.197 904.002 876.796 894.398 881.598C870.398 891.197 847.997 900.796 831.997 923.197C820.799 937.598 809.595 952 795.194 963.197C788.793 967.999 783.996 974.395 779.194 979.197C775.996 983.999 772.793 988.796 777.595 993.598C780.793 998.401 787.194 996.796 791.996 995.197C809.595 985.598 827.194 972.796 846.398 966.395C873.595 956.796 887.996 934.395 902.398 911.993C904.002 903.999 907.2 899.196 907.2 891.196L907.2 891.197ZM488 1148.8C489.599 1148.8 491.198 1147.2 494.401 1147.2C521.598 1139.2 547.204 1128 576 1124.8C603.197 1121.6 622.401 1105.6 640 1086.4C641.599 1083.2 646.401 1081.59 643.198 1078.4C641.599 1075.2 636.797 1073.59 633.599 1073.59C612.796 1076.79 590.401 1079.99 572.796 1094.4C564.796 1100.8 555.197 1104 545.599 1108.8C524.796 1118.4 504 1127.99 484.796 1140.8C481.598 1142.4 479.994 1144 479.994 1148.8L488 1148.8ZM761.6 1011.2C760.001 1009.6 760.001 1008 758.402 1008C755.204 1006.4 752.001 1009.6 750.402 1011.2C728.001 1028.8 702.402 1043.2 676.803 1056C673.606 1057.6 668.803 1059.2 670.402 1064C672.001 1067.2 676.803 1065.6 681.6 1064C708.798 1054.4 732.798 1038.4 755.199 1019.2C756.803 1017.6 758.402 1014.4 761.6 1011.2ZM1363.2 387.197C1363.2 382.395 1360 379.197 1353.6 379.197C1347.2 379.197 1344 382.395 1342.4 388.796C1342.4 393.598 1345.6 396.796 1350.4 396.796C1358.4 396.801 1363.2 393.598 1363.2 387.197ZM801.6 873.597C796.798 873.597 792.001 875.196 792.001 881.597C792.001 887.998 796.803 889.597 801.6 889.597C806.402 889.597 811.199 887.998 811.199 881.597C811.199 875.196 806.402 873.597 801.6 873.597ZM1257.6 268.797C1257.6 263.995 1254.4 260.797 1249.6 260.797C1244.8 260.797 1240 262.396 1240 268.797C1240 275.198 1243.2 278.396 1249.6 278.396C1252.8 276.797 1256 273.594 1257.6 268.797ZM1051.2 644.797C1051.2 639.995 1048 636.797 1041.6 636.797C1036.8 636.797 1032 638.396 1033.6 644.797C1033.6 651.198 1038.4 652.797 1043.2 652.797C1048 652.797 1051.2 649.594 1051.2 644.797ZM696 1115.2C696 1110.4 692.802 1107.2 688 1107.2C683.198 1107.2 680 1110.4 678.401 1115.2C678.401 1120 680 1123.2 686.401 1124.8C691.198 1123.2 694.401 1120 696 1115.2ZM584 1035.2C579.198 1035.2 576 1036.8 576 1043.2C576 1048 579.198 1051.2 584 1051.2C590.401 1051.2 593.599 1048 593.599 1043.2C593.599 1038.4 590.401 1035.2 584 1035.2ZM827.2 564.797C827.2 569.599 830.398 572.797 836.799 571.198C841.601 571.198 844.799 568.001 844.799 563.198C844.799 558.396 841.601 555.198 836.799 555.198C832.002 555.193 827.2 558.396 827.2 564.797ZM1435.2 284.797C1430.4 284.797 1425.6 287.995 1427.2 292.797C1427.2 299.198 1432 300.797 1436.8 300.797C1441.6 300.797 1444.8 297.599 1444.8 292.797C1444.8 286.396 1441.6 284.797 1435.2 284.797ZM1436.8 241.595C1436.8 236.793 1433.61 233.595 1428.8 233.595C1424 233.595 1419.21 235.194 1419.21 241.595C1419.21 247.996 1422.4 251.194 1428.8 251.194C1433.6 249.595 1436.8 246.397 1436.8 241.595ZM1168 799.995C1163.2 799.995 1160 801.594 1158.41 807.995C1158.41 812.797 1161.6 815.995 1166.41 815.995C1171.21 815.995 1176 814.396 1176 807.995C1177.6 803.193 1172.81 799.995 1168 799.995ZM638.404 1006.39C633.602 1007.99 630.404 1009.59 630.404 1015.99C630.404 1020.8 635.206 1023.99 640.003 1023.99C644.805 1023.99 648.003 1020.8 648.003 1015.99C648.003 1009.59 644.805 1006.39 638.404 1006.39ZM1192 209.595C1187.2 211.194 1182.41 212.793 1184 219.194C1184 223.996 1188.81 227.194 1193.6 225.595C1198.41 225.595 1201.6 222.397 1201.6 217.595C1201.6 212.798 1198.41 209.595 1192 209.595ZM1252.81 905.595C1257.61 905.595 1260.81 902.397 1260.81 897.595C1260.81 892.793 1257.61 889.595 1252.81 889.595C1248 889.595 1244.81 892.793 1243.21 897.595C1243.2 903.996 1246.41 905.595 1252.81 905.595ZM987.207 905.595C992.009 905.595 996.806 902.397 996.806 895.996C996.806 891.194 993.608 889.595 988.806 887.996C982.405 887.996 979.207 889.595 979.207 895.996C977.608 902.397 980.811 903.996 987.207 905.595ZM683.207 987.193C683.207 982.391 680.009 979.193 673.608 979.193C668.806 979.193 664.009 980.792 665.608 987.193C665.608 991.996 668.806 995.193 673.608 995.193C680.009 995.193 681.608 991.996 683.207 987.193ZM876.807 835.193C872.005 835.193 868.807 838.391 868.807 843.193C868.807 847.996 872.005 851.193 876.807 851.193C881.609 851.193 886.406 849.594 886.406 843.193C884.807 839.996 881.604 836.798 876.807 835.193ZM926.405 745.595C926.405 740.793 923.208 737.595 918.405 737.595C913.603 737.595 908.807 740.793 908.807 745.595C908.807 750.397 913.609 753.595 918.405 753.595C921.603 753.595 924.807 751.996 926.405 745.595ZM1262.41 193.595C1260.81 188.793 1259.21 185.595 1252.81 185.595C1248 185.595 1243.21 188.793 1243.21 195.194C1243.21 199.996 1248.01 203.194 1252.81 201.595C1259.2 201.595 1262.41 199.996 1262.41 193.595ZM1409.61 367.995C1406.41 367.995 1401.61 371.193 1401.61 375.995C1401.61 382.396 1404.8 383.995 1411.2 383.995C1416.01 383.995 1419.2 380.797 1419.2 375.995C1419.2 369.594 1416.01 367.995 1409.61 367.995ZM793.605 1060.79C798.408 1060.79 801.605 1057.6 801.605 1051.2C801.605 1046.39 798.408 1043.2 793.605 1043.2C787.204 1043.2 784.007 1046.39 784.007 1051.2C784.007 1057.59 787.204 1060.79 793.605 1060.79ZM604.805 1139.19C604.805 1134.39 601.608 1131.19 595.207 1131.19C590.404 1131.19 587.207 1132.79 587.207 1139.19C587.207 1143.99 590.404 1147.19 595.207 1147.19C601.602 1147.19 604.805 1143.99 604.805 1139.19ZM1046.41 401.591C1044.81 396.789 1043.21 393.591 1036.81 393.591C1032 393.591 1027.21 396.789 1028.81 403.19C1028.81 407.992 1033.61 409.591 1038.41 409.591C1043.2 409.591 1044.81 406.393 1046.41 401.591ZM480.005 1175.99C475.203 1175.99 472.005 1177.59 470.407 1183.99C470.407 1188.79 472.005 1193.59 478.407 1193.59C483.209 1193.59 488.005 1190.39 488.005 1183.99C488.005 1179.19 484.808 1177.59 480.005 1175.99ZM1262.41 121.591C1257.6 121.591 1252.81 123.19 1252.81 129.591C1252.81 134.393 1256 137.591 1260.81 137.591C1265.61 137.591 1268.81 135.992 1270.41 129.591C1270.41 123.19 1267.2 121.591 1262.41 121.591ZM464.005 1121.59C464.005 1116.79 460.808 1113.59 456.005 1113.59C451.203 1113.59 448.005 1116.79 448.005 1121.59C448.005 1127.99 451.203 1129.59 456.005 1129.59C460.808 1129.59 464.005 1127.99 464.005 1121.59ZM1361.61 177.591C1366.41 177.591 1371.2 175.992 1371.2 171.19C1371.2 166.387 1368.01 163.19 1363.2 163.19C1358.4 163.19 1355.2 164.789 1353.61 171.19C1352.01 174.393 1355.2 177.591 1361.61 177.591ZM812.806 1017.59C812.806 1012.79 809.608 1009.59 804.806 1009.59C800.003 1009.59 796.806 1011.19 796.806 1017.59C796.806 1022.39 800.003 1025.59 804.806 1027.19C809.602 1025.59 811.201 1022.39 812.806 1017.59ZM900.806 519.991C905.608 519.991 908.806 516.793 908.806 511.991C908.806 507.189 905.608 503.991 900.806 503.991C896.003 503.991 892.806 507.189 892.806 511.991C892.806 518.392 896.003 519.991 900.806 519.991ZM1220.81 852.791C1216 852.791 1212.81 855.989 1212.81 860.791C1212.81 865.593 1216 868.791 1220.81 868.791C1225.61 868.791 1228.81 865.593 1228.81 860.791C1228.81 855.989 1225.6 854.39 1220.81 852.791ZM896.005 545.591C889.604 545.591 886.407 548.789 886.407 555.19C886.407 559.992 889.604 563.19 894.407 563.19C900.808 563.19 904.005 559.992 904.005 555.19C905.604 548.794 902.407 547.19 896.005 545.591ZM875.203 793.591C880.005 793.591 884.802 790.393 884.802 783.992C884.802 779.19 881.604 775.992 876.802 775.992C872 775.992 867.203 779.19 867.203 783.992C867.203 790.393 870.406 793.591 875.203 793.591ZM1190.4 150.391C1195.21 150.391 1198.4 147.193 1198.4 142.391C1198.4 137.589 1195.21 134.391 1190.4 134.391C1185.6 134.391 1182.4 137.589 1182.4 142.391C1182.4 147.188 1185.6 150.391 1190.4 150.391ZM1054.4 468.791C1049.6 468.791 1046.4 471.989 1046.4 475.192C1046.4 479.994 1048 483.192 1052.8 483.192C1057.61 483.192 1060.8 479.994 1060.8 475.192C1062.4 471.989 1059.2 470.39 1054.4 468.791ZM1228.8 486.389C1228.8 479.988 1225.6 478.389 1219.2 478.389C1214.4 478.389 1211.2 481.587 1211.2 487.988C1211.2 492.79 1214.4 495.988 1219.2 495.988C1225.6 495.988 1228.8 492.79 1228.8 486.389ZM844.803 529.587C849.605 529.587 852.803 526.389 852.803 521.587C852.803 516.785 848.001 513.587 843.204 513.587C838.402 513.587 835.204 516.785 835.204 521.587C835.199 527.988 840.001 529.587 844.803 529.587ZM756.803 923.187C761.605 923.187 764.803 919.989 764.803 915.187C764.803 910.385 761.605 907.187 756.803 907.187C752.001 907.187 748.803 908.786 747.204 915.187C748.803 919.989 752.001 921.588 756.803 923.187ZM1078.4 324.787C1081.6 323.188 1086.4 321.589 1086.4 316.787C1086.4 311.985 1083.21 308.787 1078.4 308.787C1073.6 308.787 1070.4 310.386 1070.4 316.787C1070.4 321.584 1073.6 323.183 1078.4 324.787ZM1054.4 535.987C1049.6 535.987 1046.4 539.185 1046.4 543.987C1046.4 548.789 1049.6 551.987 1054.4 551.987C1059.21 551.987 1062.4 548.789 1062.4 543.987C1062.4 539.185 1059.2 535.987 1054.4 535.987ZM1174.4 545.586C1174.4 550.388 1177.6 553.586 1182.4 555.185C1187.21 555.185 1190.4 551.987 1190.4 547.185C1190.4 542.382 1188.8 539.185 1182.4 537.586C1177.6 537.586 1176 540.789 1174.4 545.586ZM931.203 686.386C936.005 686.386 939.203 683.188 939.203 678.386C939.203 673.584 936.005 670.386 931.203 670.386C926.401 670.386 923.203 673.584 923.203 678.386C923.203 683.183 926.406 686.386 931.203 686.386ZM867.203 588.787C862.401 588.787 859.203 590.386 859.203 596.787C859.203 601.589 862.401 604.787 867.203 604.787C872.005 604.787 875.203 603.188 876.802 596.787C876.807 590.386 873.604 588.787 867.203 588.787ZM1331.2 313.587C1326.4 313.587 1323.2 316.785 1323.2 321.587C1323.2 326.389 1324.8 329.587 1331.2 331.186C1336 331.186 1339.2 327.988 1339.2 323.186C1339.2 316.79 1336 313.587 1331.2 313.587ZM988.803 657.587C993.605 657.587 996.803 654.389 996.803 649.587C996.803 644.785 992.001 641.587 987.204 641.587C982.402 641.587 979.204 644.785 979.204 651.186C979.199 654.389 984.001 657.587 988.803 657.587ZM1366.4 209.587C1363.21 211.186 1360 212.785 1360 217.587C1360 222.389 1363.2 225.587 1368 225.587C1372.8 225.587 1374.4 222.389 1374.4 217.587C1374.4 212.79 1372.8 211.186 1366.4 209.587ZM731.203 553.587C731.203 548.785 728.005 547.186 723.203 545.587C716.802 545.587 713.604 548.785 713.604 555.186C713.604 559.988 716.802 563.186 721.604 563.186C726.406 563.186 729.604 558.389 731.203 553.587ZM1385.6 318.387C1385.6 311.986 1380.8 310.387 1376 310.387C1371.2 310.387 1368 313.585 1368 318.387C1368 323.189 1371.2 326.387 1376 326.387C1382.41 326.387 1385.6 324.788 1385.6 318.387ZM1243.2 430.387C1238.4 431.986 1235.2 433.585 1236.8 438.387C1236.8 443.189 1240 446.387 1244.8 444.788C1249.6 444.788 1252.8 441.59 1251.2 436.788C1251.2 431.986 1248 430.387 1243.2 430.387ZM1102.4 716.787C1105.6 716.787 1108.8 713.589 1108.8 708.787C1108.8 703.985 1105.61 700.787 1102.4 700.787C1097.6 700.787 1094.4 703.985 1094.4 708.787C1094.4 713.584 1097.6 716.787 1102.4 716.787ZM1305.6 142.387C1310.4 142.387 1313.6 139.189 1312 134.387C1312 129.585 1308.81 127.986 1304 127.986C1299.2 127.986 1297.6 131.184 1297.6 135.986C1297.6 140.788 1300.81 142.387 1305.6 142.387ZM1118.4 455.987C1123.21 455.987 1126.4 454.388 1126.4 449.586C1126.4 444.784 1124.8 441.586 1120 441.586C1115.2 441.586 1112 443.185 1112 449.586C1110.4 452.789 1113.6 454.388 1118.4 455.987ZM748.803 1086.39C748.803 1081.58 745.605 1078.39 740.803 1078.39C736.001 1078.39 732.803 1081.58 734.402 1086.39C734.402 1091.19 737.6 1094.39 742.402 1094.39C745.6 1094.39 748.803 1091.18 748.803 1086.39ZM1137.6 503.987C1142.4 503.987 1145.6 500.789 1144 495.987C1144 491.185 1140.81 487.987 1136 489.586C1131.2 489.586 1128 492.784 1129.6 497.586C1129.6 500.789 1132.81 503.987 1137.6 503.987ZM720.003 996.787C720.003 991.985 718.404 988.787 713.602 988.787C708.8 988.787 705.602 990.386 705.602 995.188C705.602 999.99 707.201 1003.19 713.602 1004.79C716.805 1003.18 720.003 999.985 720.003 996.787ZM867.203 977.584C867.203 972.782 864.005 969.584 859.203 969.584C854.401 969.584 851.203 972.782 851.203 975.985C851.203 980.788 854.401 983.985 857.604 983.985C864.005 983.985 865.604 980.787 867.203 977.584ZM1241.6 543.984C1241.6 539.182 1238.4 535.984 1235.2 535.984C1230.4 535.984 1227.2 537.583 1227.2 542.385C1227.2 547.187 1228.8 550.385 1235.2 551.984C1238.4 551.984 1240 548.786 1241.6 543.984ZM782.403 575.984C782.403 571.182 779.205 567.984 774.403 567.984C769.601 567.984 766.403 571.182 766.403 575.984C766.403 580.786 769.601 583.984 774.403 583.984C779.2 583.984 780.804 580.786 782.403 575.984ZM1032 807.984C1030.4 804.786 1028.8 801.583 1024 801.583C1019.2 801.583 1016 804.781 1016 809.583C1016 814.385 1019.2 815.984 1024 815.984C1030.4 815.984 1032 812.786 1032 807.984ZM1257.6 839.984C1257.6 835.182 1254.4 833.583 1249.6 833.583C1244.8 833.583 1243.2 836.781 1243.2 841.583C1243.2 846.385 1246.4 849.583 1251.2 847.984C1256 847.984 1257.6 844.786 1257.6 839.984ZM1240 726.386C1243.2 726.386 1246.41 723.188 1246.41 718.386C1246.41 713.583 1243.21 710.386 1240 710.386C1235.2 710.386 1232 713.583 1232 718.386C1232 723.183 1235.2 724.787 1240 726.386ZM1302.41 492.786C1302.41 487.983 1299.21 484.786 1294.41 484.786C1289.6 484.786 1286.41 487.983 1286.41 491.187C1286.41 495.989 1289.6 499.187 1294.41 499.187C1299.2 500.786 1302.41 497.583 1302.41 492.786ZM1140.81 647.986C1140.81 643.183 1139.21 639.986 1134.4 639.986C1129.6 639.986 1126.4 641.585 1126.4 646.387C1126.4 651.189 1128 654.387 1132.81 654.387C1137.6 655.986 1140.81 652.788 1140.81 647.986ZM1115.2 753.584C1115.2 748.782 1112 745.584 1107.2 745.584C1102.4 745.584 1099.2 748.782 1099.2 753.584C1099.2 758.386 1102.4 761.584 1107.2 761.584C1112 761.584 1115.2 758.386 1115.2 753.584ZM1070.4 766.386C1073.6 766.386 1076.81 764.788 1078.4 759.985C1078.4 755.183 1075.21 751.985 1070.4 751.985C1065.6 751.985 1062.4 753.584 1062.4 758.386C1062.4 763.183 1065.6 766.386 1070.4 766.386ZM1214.4 761.584C1214.4 756.782 1211.21 753.584 1206.4 753.584C1201.6 753.584 1198.4 756.782 1198.4 761.584C1198.4 766.386 1201.6 769.584 1206.4 769.584C1211.2 769.584 1214.4 766.386 1214.4 761.584ZM1251.2 780.787C1251.2 775.985 1248 772.787 1243.2 774.386C1238.4 774.386 1236.8 777.584 1236.8 782.386C1236.8 787.188 1240 790.386 1244.8 788.787C1248 788.787 1251.2 785.584 1251.2 780.787ZM1315.2 177.587C1310.4 177.587 1307.2 180.785 1307.2 183.988C1307.2 188.79 1310.4 191.988 1315.2 191.988C1320 191.988 1323.2 188.79 1323.2 183.988C1321.6 180.79 1318.4 179.186 1315.2 177.587ZM947.202 940.787C945.603 935.985 944.004 932.787 939.202 934.386C934.399 934.386 931.201 937.584 932.8 942.386C932.8 947.188 935.998 948.787 940.8 948.787C944.003 947.183 947.202 943.985 947.202 940.787ZM1174.4 697.587C1174.4 692.785 1171.2 691.186 1166.4 691.186C1161.6 691.186 1160 694.384 1160 699.186C1160 703.988 1163.2 707.186 1168 705.587C1172.8 705.587 1174.4 702.389 1174.4 697.587ZM1073.6 588.79C1068.8 588.79 1065.6 591.987 1065.6 595.191C1065.6 599.993 1068.8 603.191 1072 603.191C1076.8 603.191 1080 601.592 1080 596.79C1081.6 591.987 1078.4 588.79 1073.6 588.79ZM1408 207.99C1412.8 207.99 1416 204.792 1414.4 199.99C1414.4 195.187 1411.2 193.589 1406.4 193.589C1401.6 193.589 1398.4 196.786 1400 201.589C1400 204.792 1403.2 207.99 1408 207.99ZM1190.4 635.19C1190.4 630.387 1187.2 627.19 1182.4 628.789C1177.6 628.789 1174.4 631.986 1174.4 636.789C1174.4 641.591 1177.6 643.19 1182.4 643.19C1187.2 643.19 1190.4 639.992 1190.4 635.19ZM1360 444.79C1360 439.987 1358.4 436.79 1353.6 436.79C1348.8 436.79 1345.6 439.987 1345.6 444.79C1345.6 449.592 1347.2 452.79 1352 452.79C1356.8 452.79 1358.4 449.587 1360 444.79ZM1112 540.79C1112 535.987 1108.8 532.79 1105.6 532.79C1100.8 532.79 1097.6 534.389 1097.6 539.191C1097.6 543.993 1099.2 547.191 1104 547.191C1108.8 547.185 1112 543.988 1112 540.79ZM1198.4 398.39C1203.2 398.39 1206.4 395.192 1206.4 390.39C1206.4 385.587 1203.2 382.39 1198.4 383.989C1193.6 383.989 1190.4 387.186 1190.4 391.989C1190.4 395.186 1193.6 398.39 1198.4 398.39ZM750.4 1059.19C755.202 1059.19 758.4 1057.59 758.4 1052.79C758.4 1047.99 756.801 1044.79 751.999 1044.79C747.197 1044.79 743.999 1046.39 743.999 1051.19C742.4 1055.99 745.598 1057.59 750.4 1059.19ZM568 1079.99C568 1075.19 564.802 1071.99 561.599 1071.99C556.797 1071.99 553.599 1075.19 553.599 1079.99C553.599 1084.79 556.797 1087.99 560 1087.99C564.802 1086.39 568 1083.19 568 1079.99ZM924.8 799.992C924.8 795.19 923.201 791.992 918.399 791.992C913.597 791.992 910.399 795.19 910.399 798.393C910.399 803.195 911.998 806.393 916.8 806.393C921.597 807.992 924.8 804.794 924.8 799.992ZM675.2 1031.99C675.2 1027.19 672.002 1023.99 667.2 1025.59C662.398 1025.59 660.799 1028.79 660.799 1031.99C660.799 1036.79 663.997 1039.99 667.2 1039.99C672.002 1039.99 675.2 1036.79 675.2 1031.99ZM504 1107.19C504 1102.39 500.802 1099.19 496 1099.19C491.198 1099.19 489.599 1102.39 489.599 1107.19C489.599 1111.99 492.797 1115.19 497.599 1115.19C502.401 1115.19 504 1111.99 504 1107.19ZM1291.2 417.59C1291.2 412.787 1288 411.189 1283.2 411.189C1278.4 411.189 1275.2 414.386 1275.2 419.189C1275.2 423.991 1278.4 425.59 1283.2 425.59C1289.6 423.991 1291.2 420.793 1291.2 417.59ZM1385.6 262.39C1385.6 257.587 1382.4 254.39 1377.6 254.39C1372.8 254.39 1369.6 255.989 1369.6 260.791C1369.6 265.593 1372.8 268.791 1376 268.791C1382.4 268.791 1384 267.187 1385.6 262.39ZM944.002 902.39C944.002 897.587 940.804 895.989 936.002 895.989C931.199 895.989 928.002 899.186 928.002 903.989C928.002 908.791 931.199 910.39 936.002 910.39C940.804 910.39 944.002 907.187 944.002 902.39ZM787.201 521.59C782.399 521.59 779.201 524.787 779.201 529.59C779.201 534.392 782.399 537.59 787.201 535.991C792.004 535.991 793.603 532.793 793.603 529.59C795.201 524.793 792.004 523.189 787.201 521.59ZM814.404 918.39C812.805 913.587 811.206 910.39 806.404 911.989C801.602 911.989 800.003 915.186 800.003 919.989C800.003 924.791 803.201 927.989 808.003 926.39C812.805 926.39 814.404 923.187 814.404 918.39ZM1001.6 579.19C1001.6 574.387 998.406 572.789 993.604 572.789C988.802 572.789 987.203 575.986 987.203 579.19C987.203 583.992 990.401 587.19 995.203 587.19C1000.01 587.19 1001.6 583.992 1001.6 579.19ZM1024.01 860.79C1028.81 860.79 1032.01 857.592 1032.01 852.79C1032.01 847.988 1028.81 844.79 1024.01 844.79C1019.2 844.79 1017.6 847.987 1017.6 851.191C1016.01 857.587 1019.2 860.79 1024.01 860.79ZM1312.01 260.79C1316.81 260.79 1320.01 257.592 1320.01 254.389C1320.01 249.586 1318.41 246.389 1313.6 246.389C1308.8 246.389 1305.6 249.586 1305.6 252.79C1304.01 257.587 1307.2 259.185 1312.01 260.79ZM635.205 1135.99C630.403 1135.99 628.804 1139.19 628.804 1143.99C628.804 1148.79 632.002 1151.99 636.804 1151.99C641.607 1151.99 643.205 1148.79 643.205 1143.99C643.205 1137.59 640.008 1135.99 635.205 1135.99ZM1161.61 580.79C1156.8 580.79 1155.2 583.987 1155.2 588.79C1155.2 593.592 1158.4 596.79 1163.2 595.191C1168.01 595.191 1169.61 591.993 1169.61 587.191C1169.61 583.988 1166.41 580.79 1161.61 580.79ZM854.405 1014.39C854.405 1009.59 851.208 1006.39 848.004 1006.39C843.202 1006.39 840.004 1009.59 840.004 1014.39C840.004 1019.19 841.603 1022.39 846.405 1022.39C851.202 1022.39 854.405 1019.19 854.405 1014.39ZM1280.01 327.99C1280.01 323.187 1278.41 319.99 1273.6 319.99C1268.8 319.99 1265.6 323.187 1265.6 326.391C1265.6 331.193 1267.2 334.391 1272.01 334.391C1276.81 335.99 1278.41 332.792 1280.01 327.99ZM1086.41 799.99C1081.6 799.99 1078.41 803.187 1080 807.99C1080 812.792 1083.2 814.391 1088 814.391C1092.81 814.391 1094.41 811.193 1094.41 806.391C1094.41 801.589 1091.2 799.99 1086.41 799.99ZM652.805 1105.59C648.003 1105.59 644.805 1108.79 646.404 1113.59C646.404 1118.39 649.602 1119.99 652.805 1119.99C657.608 1119.99 660.805 1118.39 660.805 1113.59C659.201 1108.79 657.602 1105.59 652.805 1105.59ZM1190.41 335.99C1190.41 331.187 1187.21 329.589 1182.41 329.589C1177.6 329.589 1174.41 332.786 1176 337.589C1176 342.391 1179.2 343.99 1182.41 343.99C1187.2 343.99 1190.41 342.391 1190.41 335.99ZM1118.41 369.588C1118.41 364.786 1115.21 363.187 1110.41 363.187C1105.6 363.187 1102.41 366.385 1104 371.187C1104 375.989 1107.2 377.588 1110.41 377.588C1115.2 375.989 1118.41 374.39 1118.41 369.588ZM627.205 1052.79C627.205 1047.99 625.607 1044.79 620.804 1044.79C616.002 1044.79 612.804 1047.99 612.804 1052.79C612.804 1057.59 614.403 1059.19 619.205 1059.19C624.008 1060.79 627.205 1057.59 627.205 1052.79ZM1220.81 815.988C1220.81 811.186 1219.21 807.988 1214.4 807.988C1209.6 807.988 1208 809.587 1206.4 814.389C1206.4 819.191 1208 822.389 1212.81 822.389C1217.6 823.988 1219.2 820.79 1220.81 815.988ZM1006.41 705.587C1006.41 700.785 1003.21 699.186 998.405 699.186C993.603 699.186 992.004 702.384 992.004 707.186C992.004 711.988 995.202 713.587 998.405 713.587C1004.81 711.988 1006.41 710.389 1006.41 705.587ZM1131.2 227.187C1126.4 227.187 1124.8 230.385 1124.8 235.187C1124.8 239.989 1128 241.588 1132.8 241.588C1137.6 241.588 1139.2 238.39 1139.2 233.588C1137.6 230.39 1134.41 227.187 1131.2 227.187ZM769.603 959.987C769.603 955.185 768.004 951.987 763.202 951.987C758.4 951.987 756.801 953.586 755.202 958.388C755.202 963.19 756.801 966.388 761.603 966.388C766.405 967.987 768.004 964.789 769.603 959.987ZM718.405 961.586C723.208 961.586 726.405 958.388 724.807 953.586C724.807 948.784 721.609 947.185 716.807 947.185C712.004 947.185 710.405 950.383 710.405 953.586C712.004 958.388 713.603 961.586 718.405 961.586ZM904.005 947.185C908.808 947.185 912.005 943.987 910.407 939.185C910.407 935.987 907.209 932.783 904.005 932.783C899.203 932.783 896.005 934.382 896.005 939.185C896.005 945.586 899.203 947.185 904.005 947.185ZM1350.41 481.585C1345.6 481.585 1342.41 484.782 1344 489.585C1344 492.782 1347.2 495.986 1350.41 495.986C1355.21 495.986 1358.41 494.387 1358.41 489.585C1356.81 484.788 1353.6 483.183 1350.41 481.585ZM699.205 1092.78C704.008 1092.78 707.205 1091.19 707.205 1086.38C707.205 1081.58 704.008 1078.38 699.205 1078.38C694.403 1078.38 692.804 1079.98 692.804 1084.78C692.81 1089.58 696.007 1091.18 699.205 1092.78ZM843.206 871.985C838.403 871.985 835.205 875.182 836.804 879.985C836.804 884.787 840.002 887.985 844.804 886.386C849.607 886.386 851.206 883.188 851.206 879.985C851.206 875.182 849.607 873.583 843.206 871.985ZM979.206 870.386C984.008 870.386 985.607 867.188 985.607 862.386C985.607 857.583 982.409 855.985 979.206 855.985C974.403 855.985 971.206 859.182 971.206 863.985C971.206 868.787 974.409 870.386 979.206 870.386ZM1300.81 558.386C1300.81 553.584 1297.61 551.985 1292.81 551.985C1288 551.985 1286.4 555.182 1286.4 559.985C1286.4 564.787 1289.6 566.386 1292.81 566.386C1297.6 564.787 1300.81 563.183 1300.81 558.386ZM1244.81 609.583C1244.81 604.781 1241.61 603.182 1236.81 603.182C1232 603.182 1230.4 606.38 1230.4 609.583C1230.4 614.385 1233.6 617.583 1238.4 617.583C1241.6 615.984 1244.81 614.385 1244.81 609.583ZM1163.2 438.383C1163.2 443.185 1166.4 444.784 1171.2 444.784C1176 444.784 1177.6 441.586 1177.6 436.784C1177.6 431.982 1174.4 430.383 1169.6 430.383C1164.81 431.982 1163.2 433.581 1163.2 438.383ZM1145.6 299.183C1145.6 294.381 1142.4 291.183 1137.6 291.183C1134.4 291.183 1131.2 292.782 1131.2 297.584C1131.2 302.386 1132.8 305.584 1137.6 305.584C1142.4 307.183 1145.6 303.985 1145.6 299.183ZM838.403 827.183C833.601 827.183 832.002 830.381 832.002 835.183C832.002 839.985 835.2 841.584 838.403 841.584C843.205 841.584 846.403 838.386 844.804 833.584C846.403 828.787 843.2 827.183 838.403 827.183ZM956.804 748.787C956.804 753.589 960.002 756.787 964.804 756.787C968.002 756.787 971.205 755.188 971.205 750.386C971.205 745.584 969.606 742.386 964.804 742.386C960.002 740.787 958.403 743.985 956.804 748.787ZM531.204 1163.19C531.204 1158.38 528.006 1155.19 523.204 1156.79C520.006 1156.79 516.803 1158.38 516.803 1163.19C516.803 1167.99 518.402 1171.19 523.204 1171.19C528.006 1169.59 529.605 1167.99 531.204 1163.19ZM1192 278.387C1187.2 278.387 1184 281.585 1184 286.387C1184 289.585 1185.6 292.788 1190.41 292.788C1195.21 292.788 1198.41 291.189 1198.41 286.387C1200 281.585 1196.81 278.387 1192 278.387Z" fill="#FF6B35"/>
<path d="M768.134 1324.44L769.565 1315.71H770.418L768.986 1324.44H768.134ZM764.162 1322.02L764.298 1321.16H770.81L770.673 1322.02H764.162ZM765.065 1324.44L766.497 1315.71H767.349L765.918 1324.44H765.065ZM764.673 1318.98L764.81 1318.13H771.321L771.185 1318.98H764.673ZM772.584 1324.44V1315.71H777.817V1316.65H773.641V1319.6H777.425V1320.53H773.641V1324.44H772.584ZM779.627 1324.44V1315.71H784.86V1316.65H780.684V1319.6H784.468V1320.53H780.684V1324.44H779.627ZM789.415 1324.56C789.057 1324.55 788.699 1324.48 788.341 1324.35C787.983 1324.22 787.656 1324 787.361 1323.69C787.065 1323.38 786.828 1322.96 786.649 1322.43C786.47 1321.89 786.381 1321.22 786.381 1320.41C786.381 1319.64 786.453 1318.96 786.598 1318.36C786.743 1317.76 786.953 1317.26 787.229 1316.85C787.504 1316.44 787.837 1316.12 788.226 1315.91C788.618 1315.7 789.06 1315.59 789.551 1315.59C790.04 1315.59 790.474 1315.69 790.855 1315.88C791.239 1316.08 791.551 1316.35 791.793 1316.69C792.034 1317.04 792.19 1317.44 792.261 1317.89H791.222C791.125 1317.5 790.937 1317.17 790.659 1316.92C790.381 1316.66 790.011 1316.53 789.551 1316.53C788.875 1316.53 788.342 1316.82 787.953 1317.41C787.567 1318 787.372 1318.82 787.369 1319.89H787.437C787.597 1319.64 787.785 1319.44 788.004 1319.27C788.226 1319.09 788.47 1318.96 788.737 1318.87C789.004 1318.77 789.287 1318.73 789.585 1318.73C790.085 1318.73 790.543 1318.85 790.957 1319.1C791.372 1319.35 791.705 1319.69 791.955 1320.13C792.205 1320.56 792.33 1321.06 792.33 1321.62C792.33 1322.16 792.209 1322.66 791.967 1323.11C791.726 1323.55 791.386 1323.91 790.949 1324.17C790.514 1324.43 790.003 1324.56 789.415 1324.56ZM789.415 1323.62C789.773 1323.62 790.094 1323.53 790.378 1323.35C790.665 1323.17 790.891 1322.93 791.055 1322.63C791.223 1322.33 791.307 1321.99 791.307 1321.62C791.307 1321.26 791.226 1320.94 791.064 1320.64C790.905 1320.34 790.685 1320.1 790.403 1319.93C790.125 1319.75 789.807 1319.66 789.449 1319.66C789.179 1319.66 788.928 1319.72 788.695 1319.83C788.462 1319.93 788.257 1320.08 788.081 1320.26C787.908 1320.45 787.771 1320.66 787.672 1320.9C787.572 1321.13 787.523 1321.38 787.523 1321.64C787.523 1321.99 787.604 1322.31 787.766 1322.61C787.93 1322.91 788.155 1323.16 788.439 1323.34C788.726 1323.53 789.051 1323.62 789.415 1323.62ZM794.159 1324.44V1315.71H797.21C797.818 1315.71 798.319 1315.81 798.714 1316.02C799.109 1316.23 799.403 1316.51 799.596 1316.86C799.789 1317.21 799.886 1317.6 799.886 1318.03C799.886 1318.4 799.819 1318.71 799.686 1318.96C799.555 1319.2 799.382 1319.39 799.166 1319.54C798.953 1319.68 798.721 1319.78 798.471 1319.85V1319.94C798.738 1319.95 799.007 1320.05 799.277 1320.22C799.547 1320.39 799.772 1320.63 799.954 1320.95C800.136 1321.27 800.227 1321.66 800.227 1322.12C800.227 1322.56 800.127 1322.95 799.929 1323.3C799.73 1323.65 799.416 1323.93 798.987 1324.13C798.558 1324.33 798 1324.44 797.312 1324.44H794.159ZM795.216 1323.5H797.312C798.002 1323.5 798.493 1323.37 798.782 1323.1C799.075 1322.83 799.221 1322.5 799.221 1322.12C799.221 1321.82 799.146 1321.55 798.995 1321.3C798.845 1321.05 798.63 1320.85 798.352 1320.7C798.073 1320.54 797.744 1320.46 797.363 1320.46H795.216V1323.5ZM795.216 1319.54H797.176C797.494 1319.54 797.781 1319.48 798.037 1319.36C798.295 1319.23 798.5 1319.06 798.65 1318.83C798.804 1318.6 798.88 1318.33 798.88 1318.03C798.88 1317.64 798.747 1317.32 798.48 1317.05C798.213 1316.78 797.789 1316.65 797.21 1316.65H795.216V1319.54ZM804.759 1324.56C804.196 1324.56 803.695 1324.46 803.255 1324.27C802.817 1324.07 802.469 1323.8 802.211 1323.46C801.955 1323.11 801.816 1322.71 801.793 1322.25H802.867C802.89 1322.54 802.986 1322.78 803.157 1322.98C803.327 1323.19 803.55 1323.34 803.826 1323.45C804.101 1323.56 804.407 1323.62 804.742 1323.62C805.117 1323.62 805.449 1323.55 805.739 1323.42C806.029 1323.29 806.256 1323.11 806.421 1322.88C806.586 1322.64 806.668 1322.37 806.668 1322.07C806.668 1321.75 806.588 1321.46 806.429 1321.22C806.27 1320.97 806.037 1320.78 805.73 1320.64C805.424 1320.5 805.049 1320.43 804.605 1320.43H803.907V1319.49H804.605C804.952 1319.49 805.256 1319.43 805.517 1319.31C805.782 1319.18 805.988 1319 806.135 1318.78C806.286 1318.55 806.361 1318.28 806.361 1317.98C806.361 1317.68 806.296 1317.42 806.165 1317.2C806.034 1316.99 805.85 1316.82 805.611 1316.69C805.375 1316.57 805.097 1316.51 804.776 1316.51C804.475 1316.51 804.191 1316.57 803.924 1316.68C803.659 1316.78 803.444 1316.94 803.276 1317.15C803.108 1317.35 803.017 1317.6 803.003 1317.89H801.98C801.997 1317.43 802.135 1317.03 802.394 1316.69C802.652 1316.34 802.99 1316.07 803.408 1315.88C803.828 1315.69 804.29 1315.59 804.793 1315.59C805.333 1315.59 805.796 1315.7 806.182 1315.92C806.569 1316.13 806.865 1316.42 807.073 1316.77C807.28 1317.13 807.384 1317.51 807.384 1317.93C807.384 1318.42 807.255 1318.84 806.996 1319.18C806.74 1319.53 806.392 1319.77 805.952 1319.9V1319.97C806.503 1320.06 806.934 1320.3 807.243 1320.67C807.553 1321.05 807.708 1321.51 807.708 1322.07C807.708 1322.54 807.578 1322.97 807.32 1323.35C807.064 1323.72 806.715 1324.02 806.272 1324.23C805.828 1324.45 805.324 1324.56 804.759 1324.56ZM812.178 1324.56C811.678 1324.56 811.228 1324.46 810.827 1324.26C810.426 1324.06 810.105 1323.79 809.864 1323.44C809.622 1323.09 809.49 1322.7 809.468 1322.25H810.49C810.53 1322.65 810.709 1322.98 811.027 1323.23C811.348 1323.49 811.732 1323.62 812.178 1323.62C812.536 1323.62 812.854 1323.53 813.132 1323.37C813.414 1323.2 813.634 1322.97 813.793 1322.68C813.955 1322.38 814.036 1322.05 814.036 1321.68C814.036 1321.29 813.952 1320.95 813.784 1320.66C813.62 1320.36 813.392 1320.12 813.103 1319.95C812.813 1319.77 812.482 1319.68 812.11 1319.68C811.843 1319.68 811.569 1319.72 811.287 1319.8C811.006 1319.89 810.774 1319.99 810.593 1320.12L809.604 1320L810.132 1315.71H814.667V1316.65H811.019L810.712 1319.22H810.763C810.942 1319.08 811.167 1318.96 811.436 1318.87C811.706 1318.77 811.988 1318.73 812.28 1318.73C812.814 1318.73 813.29 1318.85 813.708 1319.11C814.128 1319.36 814.458 1319.71 814.696 1320.15C814.938 1320.59 815.059 1321.09 815.059 1321.66C815.059 1322.21 814.934 1322.71 814.684 1323.15C814.436 1323.58 814.096 1323.93 813.661 1324.18C813.226 1324.43 812.732 1324.56 812.178 1324.56Z" fill="black"/>
</svg>
