<svg width="1096" height="362" viewBox="0 0 1096 362" fill="none" xmlns="http://www.w3.org/2000/svg">
<path d="M851.184 35.2918C887.459 -1.98182 938.123 -6.86801 986.765 7.37694C997.048 10.3869 1010.63 16.8788 1018.91 23.839C1026.28 30.0334 1030.64 42.4002 1037.45 49.5248C1061.81 77.4918 1098.5 101.792 1083.41 144.277C1077.62 160.586 1071.3 168.903 1055.58 176.668C1073.47 193.146 1088.36 211.726 1093.46 235.787C1104.39 287.43 1079.56 338.131 1028.11 354.446C981.985 369.084 929.116 363.027 892.069 331.195C883.143 361.338 865.612 356.724 839.269 356.699L795.495 356.668L754.334 356.743C747.054 356.749 734.441 357.145 727.776 355.883C715.164 352.186 708.776 340.473 700.717 330.862C689.247 317.19 678.745 302.589 666.245 289.79C659.801 304.039 646.145 338.106 635.982 347.139C625.141 356.781 608.326 360.491 594.155 359.687C584.105 359.116 572.636 356.36 564.401 350.296C554.558 343.046 537.379 318.734 528.445 307.831C520.226 297.8 511.364 288.233 502.738 278.554C494.119 298.829 487.782 310.769 471.551 326.694C447.692 350.108 415.666 361.106 382.459 360.447C354.807 359.901 327.931 352.205 305.812 335.137C298.244 329.293 292.271 323.059 285.643 316.267C282.706 326.826 276.078 337.365 266.423 342.632C203.182 377.1 116.464 360.61 74.6014 300.581C58.9416 278.127 35.5772 259.741 21.7459 235.806C-17.8863 167.214 -3.69572 65.5036 67.192 22.6991C102.55 1.27985 145.059 -4.97858 185.095 5.34247C210.538 11.8024 224.448 19.7324 237.682 41.9733C264.93 14.0785 293.017 2.30679 331.729 0.340135C366.798 -1.5512 401.788 12.2506 426.72 36.7457C439.42 12.68 464.121 0.915763 490.873 1.09027C502.002 0.252258 527.31 9.15903 532.888 19.5334C541.751 36.0011 548.465 43.1095 561.983 57.0519C565.13 46.4986 570.268 30.6479 576.574 21.7468C595.908 -5.56676 638.551 -3.42871 663.325 14.9115C667.514 11.5708 670.234 9.52311 675.202 7.38257C679.072 5.71094 683.18 4.67457 687.369 4.31238C694.611 3.64824 703.996 3.88052 711.477 3.86545L789.773 3.78572C822.309 3.7807 837.535 1.61065 851.184 35.2918Z" fill="black"/>
<path d="M248.008 241.819C199.438 175.623 215.062 46.8986 305.582 24.8613C352.394 13.4652 397.577 27.1413 424.865 67.9315C435.376 83.6421 439.75 98.1197 444.27 116.13C452.311 154.989 447.885 202.484 425.758 236.026C410.331 259.386 386.101 275.499 358.6 280.681C317.716 288.785 273.622 275.606 248.008 241.819Z" fill="#FE6446"/>
<path d="M444.27 116C452.311 154.89 447.885 202.422 425.757 235.99C410.329 259.368 386.098 275.493 358.597 280.679C317.711 288.789 273.616 275.6 248 241.787C252.018 240.249 257.457 241.944 261.795 242.65C267.939 243.69 274.138 244.37 280.361 244.692C351.103 248.422 397.904 206.902 428.303 147.051C431.815 140.132 439.538 119.642 444.27 116Z" fill="#FF6B35"/>
<path d="M333.207 92C357.907 93.0363 365.169 112.606 367.931 134.067C370.989 157.83 369.349 205.681 337.506 209C329.577 208.806 323.603 208.424 316.729 203.333C307.154 196.239 302.789 180.785 301.218 169.307C298.493 149.389 299.618 120.36 312.13 103.416C317.546 96.0807 324.501 93.0075 333.207 92Z" fill="black"/>
<path d="M670.243 236.583L670.356 71.9859C670.363 67.6078 670.382 63.1196 670.407 58.7446C670.502 41.2932 672.25 25.3433 694.132 25.1885C730.378 24.9311 766.587 25.1004 802.833 25.0104C807.289 24.9991 811.827 24.916 816.252 25.4994C839.175 30.0386 837.799 76.9833 825.226 89.6827C818.984 95.9884 797.784 94.4957 789.744 94.524L746.214 94.6801L746.251 115.676C756.823 115.729 767.395 115.712 777.966 115.626C784.656 115.609 793.063 115.659 799.596 116.519C823.699 119.696 826.142 178.259 801.685 182.375C795.544 183.407 784.164 183.211 777.26 183.186L746.7 183.205L746.687 208.812C767.811 209.397 791.138 208.699 812.61 208.944C834.34 209.68 836.335 231.587 835.962 248.496C835.767 257.489 833.135 268.955 826.053 274.871C819.571 280.289 802.865 278.823 794.42 278.81L718.368 278.646C706.262 278.684 683.756 281.258 675.355 271.567C668.463 263.612 670.161 246.81 670.243 236.583Z" fill="#FE6446"/>
<path d="M812.61 209C834.34 209.736 836.335 231.624 835.962 248.521C835.767 257.506 833.135 268.963 826.053 274.874C819.571 280.288 802.865 278.823 794.42 278.81L718.368 278.646C706.262 278.684 683.756 281.256 675.355 271.573C668.463 263.624 670.161 246.835 670.243 236.617C678.139 236.812 688.313 239.019 696.726 239.554C728.908 241.61 759.954 236.762 789.371 223.324C794.591 220.935 810.899 213.597 812.61 209Z" fill="#FF6B35"/>
<path d="M846 236.551C846.391 221.828 851.361 206.682 863.298 197.284C880.35 183.852 895.449 201.45 911.506 206.493C915.764 207.829 919.682 209.184 924.142 209.688C932.835 211.705 959.531 208.112 946.171 194.561C942.297 190.634 930.605 185.768 925.434 183.676C904.407 175.173 882.492 166.532 866.781 149.432C840.331 120.625 842.787 70.2558 871.865 44.0833C899.336 19.5547 940.489 16.9497 974.801 25.2797C995.966 30.3107 1015.31 39.3725 1013.02 64.9159C1011.49 82.3323 998.933 109.511 977.094 102.971C961.969 98.442 946.101 88.1927 929.44 92.1182C925.912 92.949 923.525 94.6829 923.071 98.483C924.319 102.967 935.229 108.895 939.462 110.66C961.44 119.815 980.564 126.788 999.588 141.78C1031.78 168.971 1034.56 218.916 1007.86 250.884C991.909 269.976 965.944 280.042 941.547 281.712C916.753 283.105 878.479 279.853 859.014 262.866C850.485 255.416 847.165 247.481 846 236.551Z" fill="#FE6446"/>
<path d="M999.588 142C1031.78 169.148 1034.56 219.015 1007.86 250.933C991.909 269.995 965.944 280.044 941.547 281.712C916.753 283.103 878.479 279.856 859.014 262.896C850.485 255.458 847.165 247.535 846 236.623C913.66 252.67 972.949 219.719 995.872 153.604C997.05 150.225 997.843 146.443 999.122 143.158L999.588 142Z" fill="#FF6B35"/>
<path d="M555.303 159.129C556.832 148.192 563.237 128.092 566.502 117.076C573.466 93.4463 580.708 69.9014 588.232 46.4457C591.258 37.2511 594.385 30.5293 603.98 25.6924C623.943 14.4935 668.241 29.93 664.812 56.3428C663.113 69.436 652.543 94.1086 647.724 107.117L613.109 201.611C608.384 214.674 603.495 227.673 598.456 240.616C595.707 247.679 591.277 259.81 587.27 266.049C577.763 280.847 550.792 282.482 535.63 277.382C519.405 271.923 514.983 254.496 509.837 240.012C506.763 229.824 499.85 212.667 495.98 202.165L459.744 104.767C455.375 92.8331 450.462 80.9808 446.518 68.9624C443.635 60.2181 442.572 53.1071 446.908 44.4772C458.352 21.707 506.363 12.0828 519.363 37.2951C524.552 47.3582 529.232 66.4713 532.723 78.5683C540.619 105.319 548.143 132.174 555.303 159.129Z" fill="#FE6446"/>
<path d="M510 240.217C523.458 235.58 533.376 234.492 547.522 227.233C585.953 207.499 611.201 167.949 631.785 131.374C636.111 123.691 639.868 112.64 647 108L612.607 202.012C607.913 215.007 603.056 227.94 598.049 240.817C595.317 247.844 590.916 259.913 586.934 266.12C577.489 280.843 550.691 282.47 535.626 277.395C519.506 271.964 515.113 254.626 510 240.217Z" fill="#FF6B35"/>
<path d="M58.1592 248.089C49.8246 239.347 42.7202 229.51 37.0411 218.848C4.27592 157.249 22.0929 67.7222 86.9317 35.1588C118.762 19.5068 153.373 16.7459 187.287 27.3041C212.208 35.0624 225.684 49.9768 217.407 76.9327C214.424 86.647 207.503 99.3056 197.994 103.921C186.279 109.607 173.678 101.172 162.756 97.4856C80.0324 71.5959 75.4357 225.92 160.165 204.709C171.49 201.875 184.337 193.033 196.068 196.648C206.006 199.709 212.364 210.642 216.706 219.427C225.885 240.273 224.72 262.385 200.404 272.266C156.506 290.114 91.8953 284.188 58.1592 248.089Z" fill="#FE6446"/>
<path d="M216.7 219C225.888 239.988 224.722 262.251 200.383 272.199C156.442 290.169 91.7689 284.203 58 247.857C64.2969 245.498 79.3874 250.837 87.1261 252.055C126.087 258.154 161.392 250.786 196.005 232.195C203.078 228.397 209.711 223.191 216.7 219Z" fill="#FF6B35"/>
</svg>
