<svg width="689" height="638" viewBox="0 0 689 638" fill="none" xmlns="http://www.w3.org/2000/svg">
<path d="M406.938 34.3899C416.833 34.6814 426.593 36.8124 435.708 40.6754C452.263 47.9869 465.227 61.5904 471.737 78.4804C478.437 95.6824 478.037 114.843 470.617 131.749C460.727 154.037 446.887 163.022 425.242 171.365C416.532 199.198 409.042 227.209 405.592 256.217C404.812 262.815 404.032 270.162 402.667 276.621C442.442 287.48 474.827 307.827 503.812 336.683C509.233 329.128 515.558 325.778 523.698 321.773C525.298 310.536 529.908 301.708 536.628 292.64C531.693 284.818 527.398 278.225 524.008 269.489C504.843 219.844 522.912 155.639 566.492 124.584C579.027 114.998 592.363 113.086 587.318 133.965C582.208 155.143 584.447 171.679 591.087 192.076C596.042 187.945 604.703 180.914 608.333 175.944C619.133 161.151 618.978 140.427 617.883 122.942C617.668 118.239 615.937 112.802 617.782 108.267C622.362 97.0024 636.997 108.286 642.602 112.701C691.382 151.111 700.827 223.318 673.287 277.065C658.957 305.023 643.673 319.083 614.208 329.073C605.498 353.658 592.277 367.278 568.352 373.228C567.662 373.398 561.092 378.548 559.587 379.573C574.942 394.223 551.272 416.023 543.652 429.288L543.307 429.898C552.087 426.973 563.342 422.728 572.562 422.098C576.702 421.818 578.283 422.868 581.148 425.513C587.538 426.378 596.138 426.978 601.958 429.593C605.323 431.108 609.287 437.213 611.662 440.328C632.507 467.643 644.517 501.283 648.862 535.168C648.967 539.663 647.313 544.018 646.698 548.413C646.348 550.953 646.157 553.593 645.927 556.148C644.277 574.293 639.657 592.408 631.152 608.583C628.747 613.158 622.928 623.158 616.693 618.718C615.618 617.953 614.477 616.643 614.292 615.308C612.197 606.918 612.353 598.128 611.458 589.568C610.373 579.978 608.973 570.383 607.768 560.813C607.248 560.523 606.742 560.218 606.247 559.898C588.857 548.463 579.587 504.668 575.612 484.703C563.722 490.573 556.952 493.553 544.417 498.318C556.227 508.308 560.307 506.833 563.727 524.018C568.232 546.648 567.662 567.118 563.557 589.678L558.422 591.473C548.122 607.963 538.398 619.313 521.133 629.203C514.603 632.713 506.052 637.683 498.347 636.303C495.472 635.788 493.573 631.283 494.693 628.533C497.293 622.148 500.643 616.078 503.698 609.878C508.158 600.618 512.402 591.253 516.422 581.793C512.237 568.573 515.662 557.023 518.177 543.493C489.647 540.088 474.717 534.503 449.652 521.018C438.597 524.208 430.473 527.088 418.943 529.843C399.758 533.603 380.222 535.338 360.672 535.008C350.202 534.928 339.407 534.103 329.002 534.163C319.197 534.218 309.28 534.748 299.404 534.813C280.713 535.038 262.03 533.943 243.495 531.533C249.876 554.403 253.227 584.903 224.019 555.788C215.07 546.868 198.789 541.583 186.633 538.323C187.124 540.393 187.668 542.458 188.264 544.503C194.566 565.653 202.489 574.983 222.754 583.613C228.404 586.023 242.398 590.253 244.089 596.188C242.843 609.938 205.882 621.108 193.916 623.528C159.446 630.503 129.488 622.143 100.535 603.188C102.718 609.348 111.667 626.988 109.696 633.258C106.817 642.413 92.614 634.043 87.4275 630.753C71.9165 620.918 62.1905 608.223 54.0855 592.038C44.3805 587.068 47.2265 566.403 48.014 557.188L41.0285 560.738C40.8045 563.318 40.2905 566.398 39.851 568.963C37.451 582.943 37.011 597.123 35.2925 611.163C34.8975 614.083 33.737 619.933 29.8845 620.043C20.014 620.313 13.893 601.408 11.223 594.493C5.17999 578.838 3.13749 562.753 1.79399 546.238C1.58249 543.643 0.347 541.108 0 538.533C3.05 501.033 17.7055 464.138 41.132 434.698C48.076 425.968 56.0255 426.923 66.2645 426.033C67.136 425.168 68.5575 423.743 69.6805 423.373C79.992 419.968 101.062 429.318 110.671 432.978C104.835 419.278 83.0795 399.853 89.281 383.838C92.6065 375.253 109.757 375.163 116.805 369.428C127.696 360.563 136.384 349.148 145.905 338.868C171.953 310.773 202.315 291.307 238.689 279.563C235.018 260.148 231.209 241.042 225.112 222.204C221.884 212.23 217.778 202.097 214.259 192.131C199.805 189.855 187.996 185.853 176.485 176.332C162.355 164.661 153.572 147.752 152.147 129.481C150.601 111.25 156.044 92.7139 168.037 78.7759C179.996 64.9194 196.961 56.3669 215.214 54.9919C233.403 53.6509 251.371 59.6459 265.111 71.6394C278.786 83.8304 287.125 100.904 288.335 119.183C289.661 142.233 280.944 157.979 266.172 174.468C267.539 182.909 268.568 191.132 270.163 199.581C274.633 222.494 280.597 245.092 288.016 267.227C306.479 263.865 334.437 264.418 353.102 266.032C356.472 249.588 360.787 233.728 363.847 216.983C367.292 198.156 369.262 181.746 371.037 162.791C367.977 160.785 365.667 159.313 362.852 156.912C348.972 145.044 340.373 128.153 338.943 109.949C335.933 67.8009 365.643 37.3889 406.938 34.3899Z" fill="black"/>
<path d="M255.399 382.428C262.857 381.573 271.886 383.413 278.763 386.553C280.951 389.443 284.919 394.528 287.827 396.348C302.155 405.308 323.257 408.113 339.572 404.518C352.882 401.583 362.957 395.478 370.277 384.143C382.052 382.128 384.602 383.758 394.737 383.168C402.852 385.598 412.452 388.638 420.122 392.153C442.772 402.533 458.987 413.958 483.947 418.948C507.482 422.623 510.337 420.713 533.127 419.183C527.412 429.023 522.287 438.873 515.927 448.318C492.797 482.648 466.612 503.508 426.207 514.038C392.222 522.893 363.222 521.788 328.541 521.098C308.976 520.708 288.232 521.833 268.669 520.863C258.791 520.373 246.533 518.393 236.588 516.993C232.355 510.818 228.627 504.983 223.927 499.108C210.667 482.538 192.669 474.178 172.08 470.273C166.742 443.378 156.502 434.318 128.951 436.853C125.817 431.558 121.95 425.048 119.577 419.403C137.182 422.618 144.66 420.933 161.397 420.013C189.139 413.993 205.116 403.373 229.988 391.298C236.661 388.058 248.065 384.528 255.399 382.428Z" fill="#FBCA90"/>
<path d="M483.947 418.948C507.482 422.623 510.337 420.713 533.127 419.183C527.412 429.023 522.287 438.873 515.927 448.318C492.797 482.648 466.612 503.508 426.207 514.038C392.222 522.893 363.222 521.788 328.541 521.098C308.976 520.708 288.232 521.833 268.669 520.863C258.791 520.373 246.533 518.393 236.588 516.993C232.355 510.818 228.627 504.983 223.927 499.108C210.667 482.538 192.669 474.178 172.08 470.273C166.742 443.378 156.502 434.318 128.951 436.853C125.817 431.558 121.95 425.048 119.577 419.403C137.182 422.618 144.66 420.933 161.397 420.013C162.497 423.773 166.507 428.713 168.918 431.758C181.021 447.053 195.089 457.863 212.544 466.528C235.812 477.883 261.489 483.418 287.368 482.658C298.925 482.433 310.653 481.263 322.201 481.418C337.422 481.588 352.857 483.093 368.062 482.438C407.567 480.738 447.987 465.643 473.237 434.043C476.797 429.588 481.412 424.073 483.947 418.948Z" fill="#DAA66F"/>
<path d="M290.927 279.73C305.49 277.811 335.272 277.646 349.782 279.8C348.787 283.708 347.632 287.709 346.562 291.609C345.712 304.291 354.077 311.966 365.047 316.138C379.512 321.638 398.732 320.928 401.432 302.1L401.557 290.38C427.012 299.258 467.412 316.428 484.837 337.578L499.777 352.708C503.267 377.098 512.867 392.008 540.372 387.163C543.867 388.523 547.252 389.848 550.797 391.078C547.977 398.078 546.907 401.198 542.322 407.293C522.367 412.713 501.402 413.268 481.192 408.913C474.472 407.363 467.872 405.358 461.427 402.913C446.167 397.103 409.757 379.728 394.737 383.168C384.602 383.758 382.052 382.128 370.277 384.143C362.957 395.478 352.882 401.583 339.572 404.518C323.257 408.113 302.155 405.308 287.827 396.348C284.919 394.528 280.951 389.443 278.763 386.553C271.886 383.413 262.857 381.573 255.399 382.428C246.118 377.313 202.738 396.158 192.671 400.443C166.454 411.608 140.085 415.173 112.029 408.653C108.188 403.713 105.94 400.148 103.062 394.563C102.344 393.043 102.278 393.113 102.211 391.463C104.171 387.868 107.964 388.023 111.734 386.748C130.724 380.308 142.756 362.153 155.768 347.673C179.907 320.818 207.839 304.887 241.316 292.189C241.32 297.356 241.229 302.629 241.64 307.77C254 333.798 301.619 312.137 295.897 292.733C293.895 288.097 292.559 284.457 290.927 279.73Z" fill="#DF7E40"/>
<path d="M103.062 394.563C102.344 393.043 102.278 393.113 102.211 391.463C104.171 387.868 107.964 388.023 111.734 386.748C130.724 380.308 142.756 362.153 155.768 347.673C179.907 320.818 207.839 304.887 241.316 292.189C241.32 297.356 241.229 302.629 241.64 307.77C236.466 310.59 230.917 312.955 225.698 315.518C203.634 326.358 183.835 340.168 167.311 358.408C156.897 369.903 146.949 382.573 131.988 387.888C121.223 392.058 112.704 391.838 103.062 394.563Z" fill="#DAA66F"/>
<path d="M278.763 386.553C277.792 383.098 277.118 380.533 277.739 376.908C278.732 375.743 278.865 375.608 280.811 376.698C284.096 378.603 286.937 381.338 290.149 383.343C309.701 395.563 335.692 396.458 355.362 384.093C358.882 381.878 364.387 376.833 368.372 376.443C371.912 378.123 370.842 380.783 370.277 384.143C362.957 395.478 352.882 401.583 339.572 404.518C323.257 408.113 302.155 405.308 287.827 396.348C284.919 394.528 280.951 389.443 278.763 386.553Z" fill="black"/>
<path d="M290.927 279.73C305.49 277.811 335.272 277.646 349.782 279.8C348.787 283.708 347.632 287.709 346.562 291.609C328.753 291.588 313.763 291.715 295.897 292.733C293.895 288.097 292.559 284.457 290.927 279.73Z" fill="#DAA66F"/>
<path d="M401.557 290.38C427.012 299.258 467.412 316.428 484.837 337.578C480.157 338.238 469.447 329.303 464.942 326.898C446.767 317.203 421.602 305.086 401.432 302.1L401.557 290.38Z" fill="#DAA66F"/>
<path d="M188.218 352.723C200.675 352.353 198.265 361.203 191.428 367.303C188.828 369.618 186.631 370.428 183.51 371.758C164.943 371.768 177.098 356.773 188.218 352.723Z" fill="#DAA66F"/>
<path d="M242.995 334.978C247.068 334.298 250.928 337.023 251.647 341.093C252.366 345.158 249.676 349.043 245.617 349.803C241.501 350.573 237.549 347.833 236.82 343.713C236.091 339.588 238.866 335.663 242.995 334.978Z" fill="black"/>
<path d="M401.092 334.993C405.017 334.418 408.712 337.008 409.512 340.893C410.312 344.783 407.942 348.618 404.107 349.643C401.422 350.358 398.557 349.528 396.672 347.488C394.787 345.448 394.187 342.528 395.112 339.908C396.037 337.288 398.342 335.393 401.092 334.993Z" fill="black"/>
<path d="M209.537 338.898C213.48 337.943 217.453 340.353 218.435 344.288C219.417 348.223 217.038 352.213 213.11 353.223C209.141 354.243 205.102 351.838 204.11 347.858C203.119 343.883 205.554 339.863 209.537 338.898Z" fill="black"/>
<path d="M316.08 306.207C326.399 307.582 328.821 314.238 318.954 319.758C306.624 320.228 305.312 309.618 316.08 306.207Z" fill="#DAA66F"/>
<path d="M433.888 339.433C437.713 338.583 441.523 340.903 442.523 344.693C443.523 348.478 441.353 352.378 437.608 353.528C435.048 354.313 432.268 353.633 430.358 351.758C428.448 349.883 427.718 347.118 428.458 344.543C429.193 341.973 431.278 340.013 433.888 339.433Z" fill="black"/>
<path d="M630.267 121.668L630.147 120.766L630.842 120.325C639.712 122.706 655.427 144.106 659.937 152.022C676.232 180.11 679.662 213.783 671.717 245.123C662.932 279.787 636.427 318.493 596.937 318.803C584.327 318.903 572.912 310.875 566.997 300.068C566.682 299.48 566.377 298.885 566.087 298.281L565.512 296.848C552.497 270.2 568.522 231.94 588.127 212.76C608.517 192.812 621.987 187.081 629.167 157.708C631.382 145.249 631.377 134.223 630.267 121.668Z" fill="#EC7558"/>
<path d="M630.267 121.668L630.147 120.766L630.842 120.325C639.712 122.706 655.427 144.106 659.937 152.022C676.232 180.11 679.662 213.783 671.717 245.123C662.932 279.787 636.427 318.493 596.937 318.803C584.327 318.903 572.912 310.875 566.997 300.068C566.682 299.48 566.377 298.885 566.087 298.281C577.417 300.905 594.667 302.945 605.117 297.717C657.917 271.295 666.642 193.445 643.562 144.331C641.532 140.012 633.402 122.926 630.267 121.668Z" fill="#D25742"/>
<path d="M629.167 157.708C630.637 159.133 630.722 159.46 630.747 161.489C631.052 183.609 622.067 198.628 607.702 214.398C595.362 227.948 582.707 242.648 574.702 259.181C571.807 265.327 570.867 270.573 569.342 276.939C568.317 281.243 567.407 293.901 565.512 296.848C552.497 270.2 568.522 231.94 588.127 212.76C608.517 192.812 621.987 187.081 629.167 157.708Z" fill="#FCA78D"/>
<path d="M587.637 249.122C597.787 248.864 594.557 257.504 589.827 262.528C580.507 262.37 582.487 253.971 587.637 249.122Z" fill="#FCA78D"/>
<path d="M103.195 502.338C123.881 495.133 142.727 503.038 158.016 517.268C174.306 532.428 176.731 550.338 185.25 569.643C195.315 584.778 207.622 590.113 223.788 597.263L225.347 597.863L225.561 598.533C217.103 604.418 197.959 610.218 187.743 611.748C159.83 616.003 131.298 610.493 108.467 593.398C85.0304 575.853 68.9984 539.043 88.6734 513.073C93.7114 507.863 96.4574 505.173 103.195 502.338Z" fill="#EC7558"/>
<path d="M88.6734 513.073C89.2499 519.703 89.3974 527.758 90.3449 533.993C92.8219 550.293 104.732 568.108 117.475 578.388C142.11 598.268 172.487 603.813 203.33 600.333C206.991 599.918 221.312 597.698 223.548 597.743L223.788 597.263L225.347 597.863L225.561 598.533C217.103 604.418 197.959 610.218 187.743 611.748C159.83 616.003 131.298 610.493 108.467 593.398C85.0304 575.853 68.9984 539.043 88.6734 513.073Z" fill="#D25742"/>
<path d="M103.195 502.338C123.881 495.133 142.727 503.038 158.016 517.268C174.306 532.428 176.731 550.338 185.25 569.643C178.476 569.478 165.297 542.483 160.837 536.588C157.568 532.273 154.479 527.163 150.074 523.223C140.683 514.878 129.258 508.393 116.999 505.458C112.954 504.488 106.79 504.288 103.195 502.338Z" fill="#FCA78D"/>
<path d="M137.579 521.523C144.501 521.993 149.123 526.218 143.388 532.623C136.974 531.533 131.871 527.923 137.579 521.523Z" fill="#FCA78D"/>
<path d="M353.837 90.4498C359.452 73.8303 367.342 62.2478 383.522 54.2008C396.532 47.8333 411.527 46.8383 425.272 51.4308C439.502 56.3343 451.182 66.7208 457.717 80.2798C460.507 86.1208 461.527 90.4803 462.742 96.7608C463.607 102.468 463.092 110.088 461.892 115.736C458.692 130.167 449.932 142.754 437.507 150.762C425.132 158.725 409.372 161.191 395.087 157.973C380.692 154.649 368.222 145.708 360.452 133.139C352.572 120.484 350.467 104.881 353.837 90.4498Z" fill="white"/>
<path d="M353.837 90.4498C357.122 94.6063 359.612 101.952 361.922 106.942C368.787 121.772 385.107 131.843 400.887 134.148C415.372 136.22 430.087 132.457 441.797 123.687C449.007 118.236 453.357 111.985 458.017 104.323C459.322 102.175 461.262 98.6463 462.742 96.7608C463.607 102.468 463.092 110.088 461.892 115.736C458.692 130.167 449.932 142.754 437.507 150.762C425.132 158.725 409.372 161.191 395.087 157.973C380.692 154.649 368.222 145.708 360.452 133.139C352.572 120.484 350.467 104.881 353.837 90.4498Z" fill="#CBCBCB"/>
<path d="M388.342 79.9167C392.292 79.6912 395.907 79.4488 399.797 80.3078C420.127 84.7558 421.472 113.43 404.662 123.189C397.832 127.153 390.652 126.481 383.437 124.46C381.412 123.545 380.067 122.888 378.277 121.528C373.637 118.021 370.642 112.759 369.997 106.978C369.232 99.7773 371.992 92.1377 376.547 86.5822C377.497 90.3352 378.822 95.9243 383.122 97.1873C386.867 98.2893 392.662 94.7797 393.347 90.9117C393.932 87.6387 390.147 83.3413 388.177 80.9138L388.342 79.9167Z" fill="black"/>
<path d="M165.475 119.031C167.666 93.0158 187.94 72.1763 213.885 69.2718C239.83 66.3678 264.21 82.2083 272.099 107.095C278.778 128.169 272.113 151.191 255.208 165.436C238.303 179.682 214.484 182.348 194.848 172.193C175.212 162.038 163.621 141.06 165.475 119.031Z" fill="white"/>
<path d="M272.099 107.095C278.778 128.169 272.113 151.191 255.208 165.436C238.303 179.682 214.484 182.348 194.848 172.193C175.212 162.038 163.621 141.06 165.475 119.031C168.482 122.38 170.249 127.31 172.898 131.043C186.146 149.712 209.444 157.783 231.448 151.535C234.924 150.548 243.589 147.883 244.95 144.338C244.448 143.319 244.692 143.603 243.915 142.819C245.99 141.578 248.211 139.977 250.226 138.596L251.649 139.189C258.416 137.498 264.252 126.015 266.841 119.896C268.386 116.244 269.901 110.122 272.099 107.095Z" fill="#CBCBCB"/>
<path d="M224.677 100.037C232.673 97.4117 241.565 97.8652 248.379 103.208C253.056 106.921 256.069 112.338 256.753 118.271C257.727 126.269 254.976 132.495 250.226 138.596C248.211 139.977 245.99 141.578 243.915 142.819C239.157 144.811 233.928 145.395 228.848 144.503C215.224 142.1 208.111 128.444 210.842 115.628C211.381 113.099 211.845 110.62 214.109 109.105C217.095 110.191 219.322 118.813 224.839 116.879C237.837 112.324 233.6 105.027 224.677 100.037Z" fill="black"/>
<path d="M571.682 136.256L572.662 135.567L573.267 135.956C573.597 139.022 572.262 151.077 572.017 155.099C570.882 173.83 575.437 185.601 581.817 202.617C577.077 207.596 572.917 212.055 568.702 217.56C559.412 230.646 553.222 243.369 550.662 259.395C549.962 263.781 549.947 267.79 549.417 271.816C549.682 278.786 550.497 284.363 551.737 291.199C529.307 262.437 524.557 230.091 533.547 194.954C538.467 175.711 553.957 146.542 571.682 136.256Z" fill="#EC7558"/>
<path d="M551.737 291.199C529.307 262.437 524.557 230.091 533.547 194.954C538.467 175.711 553.957 146.542 571.682 136.256C569.317 145.164 565.942 154.032 563.577 163.197C545.887 188.281 539.297 224.112 543.587 254.389C544.147 258.352 547.032 268.9 549.417 271.816C549.682 278.786 550.497 284.363 551.737 291.199Z" fill="#FCA78D"/>
<path d="M571.682 136.256L572.662 135.567L573.267 135.956C573.597 139.022 572.262 151.077 572.017 155.099C570.882 173.83 575.437 185.601 581.817 202.617C577.077 207.596 572.917 212.055 568.702 217.56C564.542 203.949 562.878 196.493 563.008 181.863C563.063 175.932 563.652 168.977 563.577 163.197C565.942 154.032 569.317 145.164 571.682 136.256Z" fill="#D25742"/>
<path d="M125.905 488.768C143.79 479.983 163.771 477.843 182.788 484.403C202.503 491.308 218.678 505.743 227.769 524.553C230.265 529.753 232.697 536.558 234.16 542.178C234.865 544.418 235.272 547.163 235.702 549.503C231.529 546.628 227.522 543.123 223.057 540.198C207.421 529.938 196.352 527.793 178.497 525.123C175.75 520.383 172.071 515.743 168.622 511.478C158.348 500.768 151.894 496.873 138.223 491.728C134.165 490.743 129.967 489.663 125.905 488.768Z" fill="#EC7558"/>
<path d="M125.905 488.768C143.79 479.983 163.771 477.843 182.788 484.403C202.503 491.308 218.678 505.743 227.769 524.553C230.265 529.753 232.697 536.558 234.16 542.178L233.248 542.328C230.914 540.458 227.385 536.478 225.206 534.158C221.174 524.323 205.62 512.248 197.21 505.928C181.679 494.263 157.47 488.293 138.223 491.728C134.165 490.743 129.967 489.663 125.905 488.768Z" fill="#FCA78D"/>
<path d="M168.622 511.478L169.413 511.678C174.417 512.908 179.094 513.378 184.125 514.263C193.36 515.893 202.259 519.053 210.456 523.608C215.387 526.348 221.14 532.363 225.206 534.158C227.385 536.478 230.914 540.458 233.248 542.328L234.16 542.178C234.865 544.418 235.272 547.163 235.702 549.503C231.529 546.628 227.522 543.123 223.057 540.198C207.421 529.938 196.352 527.793 178.497 525.123C175.75 520.383 172.071 515.743 168.622 511.478Z" fill="#D25742"/>
<path d="M382.522 183.94C384.327 183.074 386.942 184.987 388.607 185.954C394.787 189.142 400.647 189.292 404.772 191.163C395.532 221.024 387.832 272.307 387.837 303.509C380.297 305.63 375.922 305.824 368.432 303.116C363.867 300.9 361.917 299.3 358.982 295.333C369.652 258.855 377.522 221.616 382.522 183.94Z" fill="#EC7558"/>
<path d="M382.522 183.94C384.327 183.074 386.942 184.987 388.607 185.954C386.387 198.175 384.322 210.424 382.427 222.7C380.907 232.459 371.897 298.778 368.432 303.116C363.867 300.9 361.917 299.3 358.982 295.333C369.652 258.855 377.522 221.616 382.522 183.94Z" fill="#FCA78D"/>
<path d="M597.977 459.548C599.347 456.188 600.927 453.068 602.527 449.813C620.497 473.113 632.577 508.983 635.627 537.988L631.152 540.588C628.537 541.913 623.822 544.108 621.462 545.528C618.632 546.848 615.617 547.013 612.542 547.338C599.647 536.633 589.772 493.078 586.962 476.188L592.887 468.733C595.317 465.498 596.712 463.363 597.977 459.548Z" fill="#EC7558"/>
<path d="M586.962 476.188L592.887 468.733C596.607 478.033 598.732 486.538 601.682 496.033C607.277 514.018 612.792 528.898 621.462 545.528C618.632 546.848 615.617 547.013 612.542 547.338C599.647 536.633 589.772 493.078 586.962 476.188Z" fill="#D25742"/>
<path d="M597.977 459.548C599.347 456.188 600.927 453.068 602.527 449.813C620.497 473.113 632.577 508.983 635.627 537.988L631.152 540.588C628.967 534.053 627.872 525.003 625.997 518.393C621.132 501.223 610.352 471.583 597.977 459.548Z" fill="#FCA78D"/>
<path d="M46.1465 449.888C47.436 452.763 48.6755 455.663 49.8655 458.578C51.7055 462.243 53.2465 465.323 55.383 468.808L61.4075 476.193C57.699 495.823 53.352 514.603 45.0825 532.918C40.496 543.078 38.763 550.938 26.31 545.458C23.143 543.888 20.741 542.493 17.702 540.663C16.4095 539.823 14.768 538.538 13.486 537.603C17.5475 504.138 26.2425 477.328 46.1465 449.888Z" fill="#EC7558"/>
<path d="M55.383 468.808L61.4075 476.193C57.699 495.823 53.352 514.603 45.0825 532.918C40.496 543.078 38.763 550.938 26.31 545.458C27.9915 540.588 34.1014 531.733 36.5774 524.748C43.1459 506.218 49.1495 487.443 55.383 468.808Z" fill="#D25742"/>
<path d="M46.1465 449.888C47.436 452.763 48.6755 455.663 49.8655 458.578C47.22 463.088 43.8825 467.528 41.417 472.118C32.374 488.948 25.4485 507.483 21.044 526.063C20.3975 528.788 18.779 538.953 17.702 540.663C16.4095 539.823 14.768 538.538 13.486 537.603C17.5475 504.138 26.2425 477.328 46.1465 449.888Z" fill="#FCA78D"/>
<path d="M255.63 196.465C258.685 210.541 261.493 223.563 265.147 237.502C270.494 257.897 276.722 276.73 283.299 296.669C280.673 299.073 277.485 302.032 274.24 303.569C267.007 306.338 262.279 306.15 254.968 304.502C251.896 267.566 246.202 242.253 234.508 206.736C238.401 205.339 247.111 202.467 250.114 200.546C251.916 199.129 253.774 197.81 255.63 196.465Z" fill="#EC7558"/>
<path d="M255.63 196.465C258.685 210.541 261.493 223.563 265.147 237.502C270.494 257.897 276.722 276.73 283.299 296.669C280.673 299.073 277.485 302.032 274.24 303.569C272.541 302.092 261.876 249.582 260.581 243.571C257.698 230.188 253.071 213.858 250.114 200.546C251.916 199.129 253.774 197.81 255.63 196.465Z" fill="#FCA78D"/>
<path d="M545.867 303.084C551.982 307.991 557.002 310.809 563.562 314.983C565.202 316.028 568.147 319.658 570.197 321.133C579.172 327.583 588.657 329.653 599.357 330.273C597.672 334.233 596.132 337.728 593.562 341.198C580.692 358.588 549.767 373.023 537.492 346.588C537.097 345.793 536.762 344.963 536.487 344.118C533.012 333.528 537.257 317.638 542.107 307.999C543.267 306.411 544.562 304.524 545.867 303.084Z" fill="#D25742"/>
<path d="M542.107 307.999L542.437 308.392C547.887 315.003 551.707 322.913 558.607 328.383C563.397 332.178 568.617 334.778 573.992 337.603C563.717 347.413 551.592 354.718 537.492 346.588C537.097 345.793 536.762 344.963 536.487 344.118C533.012 333.528 537.257 317.638 542.107 307.999Z" fill="#EC7558"/>
<path d="M538.252 446.813C546.957 442.398 558.467 438.343 567.842 436.248C567.397 439.088 567.397 441.798 567.312 444.668C567.307 450.173 567.347 453.893 568.107 459.323C568.727 464.473 569.187 467.098 570.292 472.243C557.767 476.918 541.477 485.663 528.102 487.593C525.747 487.933 508.752 484.263 505.087 483.578C510.517 477.838 514.677 472.983 519.342 466.643C522.257 462.683 527.027 455.238 530.222 451.923L530.852 451.278C532.897 449.153 535.302 448.293 538.007 447.043L538.252 446.813Z" fill="#D25742"/>
<path d="M538.252 446.813C546.957 442.398 558.467 438.343 567.842 436.248C567.397 439.088 567.397 441.798 567.312 444.668C567.307 450.173 567.347 453.893 568.107 459.323L567.967 460.718C565.287 464.478 534.342 474.198 528.092 476.598C532.187 467.948 537.327 456.513 538.007 447.043L538.252 446.813Z" fill="#EC7558"/>
<path d="M538.252 446.813C546.957 442.398 558.467 438.343 567.842 436.248C567.397 439.088 567.397 441.798 567.312 444.668C558.337 444.793 552.437 446.073 543.842 448.658C542.587 449.038 539.452 450.188 538.502 449.708C538.412 448.753 538.302 447.768 538.252 446.813Z" fill="#FCA78D"/>
<path d="M82.907 473.073C87.2555 461.633 100.359 450.873 112.933 452.163C120.9 452.978 125.246 456.363 130.245 462.078C132.571 464.653 133.629 466.838 135.31 469.863C135.281 472.118 135.732 471.383 134.615 472.658C121.201 477.283 115.223 481.203 103.97 489.818C101.06 492.048 93.736 493.183 90.7705 495.913C86.384 499.373 81.7335 504.998 77.977 509.303C77.3485 504.718 76.0979 497.153 77.6469 492.643C78.3649 485.468 79.8345 479.548 82.907 473.073Z" fill="#EC7558"/>
<path d="M135.31 469.863C135.281 472.118 135.732 471.383 134.615 472.658C121.201 477.283 115.223 481.203 103.97 489.818C101.06 492.048 93.736 493.183 90.7705 495.913C86.384 499.373 81.7335 504.998 77.977 509.303C77.3485 504.718 76.0979 497.153 77.6469 492.643C79.1059 493.208 83.0855 488.693 84.3455 487.558C87.607 484.593 91.1055 481.903 94.805 479.503C108.878 470.453 119.242 469.623 135.31 469.863Z" fill="#D25742"/>
<path d="M82.907 473.073C87.2555 461.633 100.359 450.873 112.933 452.163C120.9 452.978 125.246 456.363 130.245 462.078C123.46 462.993 115.782 456.168 104.2 460.283C96.7105 462.943 87.0495 473.193 82.907 473.073Z" fill="#FCA78D"/>
<path d="M490.862 496.533C496.012 496.918 501.152 497.363 506.287 497.873C513.867 498.868 520.267 499.953 527.667 501.993C523.647 509.698 522.137 512.473 519.757 520.878C519.237 523.588 518.812 527.173 518.397 529.968C499.652 527.448 481.237 522.373 464.337 513.783C474.877 507.908 481.217 503.723 490.862 496.533Z" fill="#D25742"/>
<path d="M506.287 497.873C513.867 498.868 520.267 499.953 527.667 501.993C523.647 509.698 522.137 512.473 519.757 520.878C509.532 518.613 502.397 517.153 492.792 512.708C495.562 509.753 503.507 498.993 506.287 497.873Z" fill="#EC7558"/>
<path d="M540.027 538.163C543.567 535.708 547.923 532.853 551.148 530.108C553.618 548.918 553.673 559.673 551.828 578.503C545.463 578.613 541.017 578.428 534.688 577.463C531.953 576.673 529.507 575.388 527.062 573.968C527.647 565.033 529.702 551.528 531.597 542.788C534.257 541.023 537.177 539.623 540.027 538.163Z" fill="#EC7558"/>
<path d="M540.027 538.163C537.952 546.693 535.342 568.693 534.688 577.463C531.953 576.673 529.507 575.388 527.062 573.968C527.647 565.033 529.702 551.528 531.597 542.788C534.257 541.023 537.177 539.623 540.027 538.163Z" fill="#D25742"/>
<path d="M524.987 336.233L525.832 342.868C526.332 345.278 526.782 347.738 527.477 350.088C532.662 361.698 537.587 365.323 548.822 370.518C535.172 377.668 521.912 382.063 512.892 365.303C512.057 363.293 511.522 360.973 510.957 358.853C509.477 346.033 514.117 341.293 524.987 336.233Z" fill="#D25742"/>
<path d="M524.987 336.233L525.832 342.868C526.332 345.278 526.782 347.738 527.477 350.088C526.952 361.673 525.057 365.318 512.892 365.303C512.057 363.293 511.522 360.973 510.957 358.853C509.477 346.033 514.117 341.293 524.987 336.233Z" fill="#EC7558"/>
<path d="M524.987 336.233L525.832 342.868C516.527 348.173 515.482 355.238 510.957 358.853C509.477 346.033 514.117 341.293 524.987 336.233Z" fill="#FCA78D"/>
<path d="M63.1015 543.668C63.705 539.218 64.87 532.123 67.78 528.553L68.5795 528.563C70.3855 532.328 68.879 543.683 69.458 548.413C70.145 554.028 71.899 559.428 72.94 564.858C74.287 569.323 77.087 574.453 79.317 578.528C72.021 579.988 68.2095 579.643 60.878 578.548C60.875 565.023 61.044 557.058 63.1015 543.668Z" fill="#EC7558"/>
<path d="M63.1015 543.668C63.705 539.218 64.87 532.123 67.78 528.553L68.5795 528.563C70.3855 532.328 68.879 543.683 69.458 548.413C70.145 554.028 71.899 559.428 72.94 564.858C65.741 558.988 67.554 547.478 63.1015 543.668Z" fill="#D25742"/>
<path d="M383.927 169.306C392.892 171.49 400.472 173.211 409.867 173.297C409.207 175.506 404.812 189.758 404.772 191.163C400.647 189.292 394.787 189.142 388.607 185.954C386.942 184.987 384.327 183.074 382.522 183.94C383.237 179.114 383.547 174.176 383.927 169.306Z" fill="#D25742"/>
<path d="M129.305 447.048C137.482 445.878 145.265 445.083 152.292 450.078C154.382 451.758 155.976 453.168 157.36 455.518C159.5 459.733 160.807 464.318 161.207 469.028C155.553 468.868 152.214 468.843 146.665 469.973C144.881 465.228 143.442 461.563 140.684 457.263C138.804 454.778 137.236 453.313 135.014 451.138L129.305 447.048Z" fill="#D25742"/>
<path d="M129.305 447.048C137.482 445.878 145.265 445.083 152.292 450.078C154.382 451.758 155.976 453.168 157.36 455.518C154.72 457.033 144.194 457.228 140.684 457.263C138.804 454.778 137.236 453.313 135.014 451.138L129.305 447.048Z" fill="#EC7558"/>
<path d="M129.305 447.048C137.482 445.878 145.265 445.083 152.292 450.078C150.161 451.043 138.313 451.003 135.014 451.138L129.305 447.048Z" fill="#FCA78D"/>
<path d="M228.779 191.537C238.128 189.715 244.519 187.479 253.121 183.867C254.1 187.87 254.549 192.118 255.63 196.465C253.774 197.81 251.916 199.129 250.114 200.546C247.111 202.467 238.401 205.339 234.508 206.736C232.684 201.699 230.677 196.56 228.779 191.537Z" fill="#D25742"/>
<path d="M527.552 589.008L532.242 590.343L541.612 592.333C534.042 602.043 531.297 605.003 521.582 612.703C519.627 614.578 517.417 615.863 515.142 617.343C517.227 610.748 524.222 594.998 527.552 589.008Z" fill="#EC7558"/>
<path d="M527.552 589.008L532.242 590.343C529.987 592.138 521.382 609.828 521.582 612.703C519.627 614.578 517.417 615.863 515.142 617.343C517.227 610.748 524.222 594.998 527.552 589.008Z" fill="#D25742"/>
<path d="M80.606 591.863C81.8665 591.693 81.787 591.653 82.963 592.108C86.4145 595.743 90.2175 611.928 91.8115 617.693C89.7535 616.163 87.886 614.403 85.977 612.688C78.5545 605.248 75.3425 602.018 69.688 593.283L80.606 591.863Z" fill="url(#paint0_linear_12_761)"/>
<path d="M625.938 558.418C628.697 557.458 630.458 556.788 633.148 555.568C631.518 565.678 629.138 580.943 624.703 590.043C624.353 586.598 624.032 583.023 623.587 579.598C622.447 572.933 621.608 566.223 621.062 559.488L625.938 558.418Z" fill="#EC7558"/>
<path d="M621.062 559.488L625.938 558.418L625.888 559.118C625.433 565.788 627.462 575.483 623.662 579.443C623.637 579.493 623.612 579.548 623.587 579.598C622.447 572.933 621.608 566.223 621.062 559.488Z" fill="#D25742"/>
<path d="M15.4434 555.588C18.0874 557.013 19.8183 557.708 22.5948 558.823C24.3158 559.318 25.5999 559.418 26.7989 560.518C27.1469 564.513 25.2134 575.628 24.5164 580.158C24.1304 582.998 23.9274 587.288 23.6929 590.248C19.8154 580.073 16.9349 566.418 15.4434 555.588Z" fill="#EC7558"/>
<path d="M22.5948 558.823C24.3158 559.318 25.5999 559.418 26.7989 560.518C27.1469 564.513 25.2134 575.628 24.5164 580.158C20.9659 574.903 22.3613 565.498 22.5948 558.823Z" fill="#D25742"/>
<path d="M80.1954 436.793C85.8729 438.053 92.2999 440.673 97.8129 442.743C94.7574 444.208 92.7519 445.373 89.8454 447.123C86.3229 449.618 84.3154 451.808 81.4064 454.963C81.2269 448.918 81.0179 442.773 80.1954 436.793Z" fill="#EC7558"/>
<path d="M62.7345 439.883C64.3905 439.623 65.0345 439.338 66.493 440.128C68.912 443.283 67.6455 457.073 65.875 459.098L65.2039 458.493C61.7704 452.188 59.7124 447.143 57.0854 440.543L62.7345 439.883Z" fill="#FCA78D"/>
<path d="M537.837 511.223C540.742 512.813 543.153 514.343 545.943 516.128C542.798 519.208 540.277 521.493 536.907 524.323L532.407 527.483C533.592 520.608 534.762 517.483 537.837 511.223Z" fill="#EC7558"/>
<path d="M580.767 438.983L591.102 440.353L587.687 449.008C585.252 449.478 582.797 449.863 580.332 450.173C580.322 446.053 580.432 443.078 580.767 438.983Z" fill="#FCA78D"/>
<path d="M580.332 450.173C582.797 449.863 585.252 449.478 587.687 449.008C585.752 453.788 584.162 456.743 581.722 461.248C580.957 457.773 580.367 453.728 580.332 450.173Z" fill="#D25742"/>
<path d="M412.442 0.292289C429.932 -1.94271 450.812 8.87979 459.012 24.5403C462.002 30.2538 464.367 43.0648 453.577 36.7678C445.037 30.9748 436.292 26.1793 425.837 25.2133C415.502 24.2583 407.397 26.2433 400.842 16.5408C400.847 6.74379 402.117 2.30929 412.442 0.292289Z" fill="black"/>
<path d="M413.347 6.67285C422.967 7.14585 433.182 9.88436 441.147 15.4429C443.652 17.1899 450.242 22.7168 450.757 25.6548C449.252 25.7103 447.792 24.8294 446.302 24.1714C440.062 21.2564 439.282 21.1389 432.407 19.0634C425.447 16.5084 415.252 18.7633 409.057 15.2413C404.982 12.9223 411.442 7.79085 413.347 6.67285Z" fill="#EC7558"/>
<path d="M197.02 22.2794C205.885 21.8509 219.143 23.5194 217.439 37.2884C216.248 46.9104 195.42 46.4919 188.391 49.0604C182.824 51.0949 178.852 53.2069 173.402 57.0939C170.384 59.5219 164.819 64.7769 160.372 63.0674C158.319 62.2974 157.561 59.1034 157.919 57.1019C160.272 43.9374 172.288 32.4194 183.876 26.7324C188.359 24.5324 192.464 23.3444 197.02 22.2794Z" fill="black"/>
<path d="M200.139 29.2489C204.609 28.8759 211.262 30.2984 209.651 36.3009C209.276 36.7954 208.565 37.8339 207.939 37.9684C199.539 39.7744 191.092 40.8314 183.012 43.9704C179.761 45.2334 177.013 46.5834 173.915 48.2249C170.735 50.3139 169.086 51.6794 166.18 54.1789C175.724 39.2179 182.96 33.4139 200.139 29.2489Z" fill="#EC7558"/>
<defs>
<linearGradient id="paint0_linear_12_761" x1="544.278" y1="228.288" x2="284.127" y2="411.499" gradientUnits="userSpaceOnUse">
<stop stop-color="#D55C47"/>
<stop offset="1" stop-color="#F3876A"/>
</linearGradient>
</defs>
</svg>
