<svg width="2266" height="825" viewBox="0 0 2266 825" fill="none" xmlns="http://www.w3.org/2000/svg">
<path d="M900 412.5C900 639.765 698.528 824 450 824C201.472 824 0 639.765 0 412.5C0 185.235 201.472 1 450 1C698.528 1 900 185.235 900 412.5Z" fill="#D9D9D9"/>
<path d="M2266 411.5C2266 638.765 2064.53 823 1816 823C1567.47 823 1366 638.765 1366 411.5C1366 184.235 1567.47 0 1816 0C2064.53 0 2266 184.235 2266 411.5Z" fill="#D9D9D9"/>
<path d="M2266 411.5C2266 638.765 2064.53 823 1816 823C1567.47 823 1366 638.765 1366 411.5C1366 184.235 1567.47 0 1816 0C2064.53 0 2266 184.235 2266 411.5Z" fill="url(#paint0_linear_41_51)"/>
<path d="M2266 411.5C2266 638.765 2064.53 823 1816 823C1567.47 823 1366 638.765 1366 411.5C1366 184.235 1567.47 0 1816 0C2064.53 0 2266 184.235 2266 411.5Z" fill="url(#paint1_linear_41_51)"/>
<path d="M1946.84 657.771H1828.59L1946.83 657.765V541.604L1946.84 657.771ZM1828.59 457.695C1828.59 488.549 1853.62 513.559 1884.49 513.559H1946.83V541.604H1884.49C1853.62 541.604 1828.59 566.615 1828.59 597.469V657.771L1802.53 657.765V597.469C1802.53 566.615 1777.5 541.605 1746.63 541.604H1684.29V513.559H1746.62C1777.5 513.559 1802.53 488.544 1802.53 457.688V395.392H1828.59V457.695Z" fill="black"/>
<path d="M1873.52 228.76C1851.69 250.579 1851.69 285.953 1873.52 307.771L1917.6 351.824L1897.76 371.653L1853.68 327.599C1831.85 305.781 1796.45 305.781 1774.62 327.599L1731.95 370.236L1713.53 351.823L1756.19 309.186C1778.03 287.368 1778.03 251.994 1756.19 230.176L1712.11 186.124L1731.95 166.295L1776.04 210.349C1797.87 232.167 1833.26 232.167 1855.1 210.349L1899.18 166.295L1917.6 184.707L1873.52 228.76Z" fill="black"/>
<path d="M1686.71 317.031C1678.72 346.835 1696.41 377.47 1726.24 385.456L1786.45 401.581L1779.19 428.665L1718.98 412.541C1689.15 404.555 1658.5 422.242 1650.51 452.046L1634.89 510.291L1609.72 503.551L1625.34 445.309C1633.33 415.505 1615.63 384.869 1585.81 376.884L1525.59 360.759L1532.85 333.672L1593.07 349.797C1622.89 357.784 1653.55 340.096 1661.54 310.292L1677.67 250.114L1702.84 256.853L1686.71 317.031Z" fill="black"/>
<path d="M1585 413.5C1585 640.765 1383.53 825 1135 825C886.472 825 685 640.765 685 413.5C685 186.235 886.472 2 1135 2C1383.53 2 1585 186.235 1585 413.5Z" fill="#D9D9D9"/>
<path d="M1585 413.5C1585 640.765 1383.53 825 1135 825C886.472 825 685 640.765 685 413.5C685 186.235 886.472 2 1135 2C1383.53 2 1585 186.235 1585 413.5Z" fill="url(#paint2_linear_41_51)"/>
<path d="M1585 413.5C1585 640.765 1383.53 825 1135 825C886.472 825 685 640.765 685 413.5C685 186.235 886.472 2 1135 2C1383.53 2 1585 186.235 1585 413.5Z" fill="url(#paint3_linear_41_51)"/>
<path d="M1227.39 691.928C1208.53 691.774 1194.14 686.291 1178.53 676.76C1156.15 664.983 1139.05 645.197 1126.84 623.382C1107.43 647.469 1081.49 662.084 1052.45 670.341C1040.08 673.933 1018.42 677.577 982.521 664.567C930.781 647.182 893.093 593.331 897.376 538.461C896.593 515.716 904.883 493.392 916.635 474.202C885.285 457.37 859.722 429.117 849.933 394.468C843.984 375.5 844.234 355.066 846.428 335.567C854.284 289.529 888.808 249.496 933.253 235.097C950.993 194.658 989.706 164.502 1033.57 158.362C1062.69 154.306 1092.83 160.404 1118.31 175.209C1155.43 134.029 1220.1 121.859 1269.48 147.155C1307.15 165.149 1334.08 202.689 1340.62 243.624C1376.46 257.987 1406.65 287.278 1418.5 324.461C1426.42 347.482 1426.68 372.84 1421.55 396.478C1412.39 433.363 1386.36 464.764 1352.66 481.926C1352.75 488.49 1374.32 535.818 1370.71 571.536C1369.92 616.189 1341.61 658.508 1302.34 679.064C1279.43 692.442 1252.27 692.19 1227.39 691.928ZM1120.02 563.391C1151.78 559.853 1172.6 532.155 1188.77 507.209C1196.41 495.846 1202.25 483.126 1208.06 471.03C1215.58 477.929 1221.96 490.926 1233.86 494.021C1246.39 497.926 1261.09 494.754 1268.76 483.364C1283.45 455.963 1276.21 422.901 1267.66 394.507C1262.39 378.198 1255.48 361.467 1242.33 349.908C1245.14 330.122 1233.42 310.028 1216.75 299.672C1202.55 310.998 1180.95 310.93 1167.25 298.814C1141 325.598 1116.94 324.709 1093.7 303.482C1088.47 298.711 1078.51 332.601 1043.53 313.403C1023.44 330.244 1007.86 346.445 994.052 369.771C980.637 394.919 966.588 417.253 965.377 444.562C964.795 460.523 977.264 477.246 994.158 475.948C1011.04 477.456 1022.54 460.833 1035.32 453.928C1037.23 476.204 1039.38 500.136 1046.9 521.883C1055.54 550.024 1085.97 567.91 1114.76 563.814C1116.8 563.655 1120.02 563.389 1120.02 563.391ZM1136.5 479.359C1121.05 469.889 1128.49 449.336 1127.87 434.408C1129.41 416.394 1130.64 397.454 1138.74 381.042C1147.3 369.341 1168.2 373.855 1169.12 388.868C1168.51 403.968 1161.58 419 1162.41 434.654C1160.61 447.726 1163.71 462.408 1157.93 474.355C1153.18 480.965 1143.52 482.887 1136.5 479.359ZM1069.04 470.755C1054.49 462.859 1059.11 442.989 1056.83 429.175C1058.72 413.181 1057.14 392.893 1070.53 381.677C1083.62 372.545 1101.44 388.184 1095.25 402.541C1088.65 420.686 1092.97 440.511 1093.11 458.909C1090.62 469.762 1079.01 475.523 1069.04 470.755Z" fill="black"/>
<path d="M1970.01 309.102C1978.01 338.906 2008.66 356.594 2038.48 348.608L2098.7 332.483L2105.96 359.567L2045.74 375.692C2015.92 383.678 1998.22 414.313 2006.21 444.117L2021.83 502.362L1996.66 509.101L1981.05 450.858C1973.06 421.054 1942.4 403.367 1912.58 411.352L1852.36 427.477L1845.1 400.392L1905.32 384.267C1935.14 376.28 1952.84 345.646 1944.85 315.841L1928.71 255.663L1953.88 248.925L1970.01 309.102Z" fill="black"/>
<path d="M900 412.5C900 639.765 698.528 824 450 824C201.472 824 0 639.765 0 412.5C0 185.235 201.472 1 450 1C698.528 1 900 185.235 900 412.5Z" fill="url(#paint4_linear_41_51)"/>
<path d="M900 412.5C900 639.765 698.528 824 450 824C201.472 824 0 639.765 0 412.5C0 185.235 201.472 1 450 1C698.528 1 900 185.235 900 412.5Z" fill="url(#paint5_linear_41_51)"/>
<path d="M900 412.5C900 639.765 698.528 824 450 824C201.472 824 0 639.765 0 412.5C0 185.235 201.472 1 450 1C698.528 1 900 185.235 900 412.5Z" fill="url(#paint6_linear_41_51)"/>
<path d="M285.723 191.375C352.219 241.296 423.743 342.515 450.003 396.835C476.265 342.519 547.785 241.295 614.283 191.375C662.263 155.354 740.003 127.483 740.003 216.17C740.003 233.882 729.848 364.96 723.892 386.24C703.189 460.224 627.748 479.094 560.642 467.673C677.942 487.637 707.782 553.765 643.339 619.893C520.949 745.483 467.429 588.382 453.709 548.127C451.195 540.747 450.019 537.295 450.001 540.231C449.984 537.295 448.808 540.747 446.294 548.127C432.58 588.382 379.061 745.487 256.664 619.893C192.22 553.765 222.059 487.633 339.361 467.673C272.253 479.094 196.811 460.223 176.111 386.24C170.153 364.958 160 233.88 160 216.17C160 127.483 237.742 155.354 285.72 191.375H285.723Z" fill="#1185FE"/>
<defs>
<linearGradient id="paint0_linear_41_51" x1="1133" y1="0" x2="1133" y2="825" gradientUnits="userSpaceOnUse">
<stop stop-color="white" stop-opacity="0.98"/>
<stop offset="1" stop-color="#E9E9EE"/>
</linearGradient>
<linearGradient id="paint1_linear_41_51" x1="1133" y1="0" x2="1133" y2="825" gradientUnits="userSpaceOnUse">
<stop stop-color="white" stop-opacity="0.98"/>
<stop offset="1" stop-color="#E9E9EE"/>
</linearGradient>
<linearGradient id="paint2_linear_41_51" x1="1133" y1="0" x2="1133" y2="825" gradientUnits="userSpaceOnUse">
<stop stop-color="white" stop-opacity="0.98"/>
<stop offset="1" stop-color="#E9E9EE"/>
</linearGradient>
<linearGradient id="paint3_linear_41_51" x1="1133" y1="0" x2="1133" y2="825" gradientUnits="userSpaceOnUse">
<stop stop-color="white" stop-opacity="0.98"/>
<stop offset="1" stop-color="#E9E9EE"/>
</linearGradient>
<linearGradient id="paint4_linear_41_51" x1="1136.96" y1="825" x2="1135.7" y2="-0.0100808" gradientUnits="userSpaceOnUse">
<stop stop-color="white" stop-opacity="0.98"/>
<stop offset="1" stop-color="#E9E9EE"/>
</linearGradient>
<linearGradient id="paint5_linear_41_51" x1="1136.96" y1="825" x2="1135.7" y2="-0.0100808" gradientUnits="userSpaceOnUse">
<stop stop-color="white" stop-opacity="0.98"/>
<stop offset="1" stop-color="#E9E9EE"/>
</linearGradient>
<linearGradient id="paint6_linear_41_51" x1="1136.96" y1="825" x2="1135.7" y2="-0.0100808" gradientUnits="userSpaceOnUse">
<stop stop-color="white" stop-opacity="0.98"/>
<stop offset="1" stop-color="#E9E9EE"/>
</linearGradient>
</defs>
</svg>
